<?xml version="1.0" encoding="UTF-8" standalone="no"?>
<!-- Created with Inkscape (http://www.inkscape.org/) -->
<svg
   xmlns:dc="http://purl.org/dc/elements/1.1/"
   xmlns:cc="http://creativecommons.org/ns#"
   xmlns:rdf="http://www.w3.org/1999/02/22-rdf-syntax-ns#"
   xmlns:svg="http://www.w3.org/2000/svg"
   xmlns="http://www.w3.org/2000/svg"
   xmlns:xlink="http://www.w3.org/1999/xlink"
   xmlns:sodipodi="http://sodipodi.sourceforge.net/DTD/sodipodi-0.dtd"
   xmlns:inkscape="http://www.inkscape.org/namespaces/inkscape"
   width="64px"
   height="64px"
   id="svg2383"
   sodipodi:version="0.32"
   inkscape:version="0.46"
   sodipodi:docname="ktuberling.svg"
   inkscape:output_extension="org.inkscape.output.svg.inkscape"
   inkscape:export-filename="/home/it-s/Media/Pictures/Images/Vector/KDE4/icons/hi128-app-ktuberling.png"
   inkscape:export-xdpi="180"
   inkscape:export-ydpi="180">
  <defs
     id="defs2385">
    <linearGradient
       id="linearGradient4594">
      <stop
         id="stop4596"
         offset="0"
         style="stop-color:#e6f9ff;stop-opacity:1;" />
      <stop
         style="stop-color:#bfe9ff;stop-opacity:1;"
         offset="0.44850001"
         id="stop4598" />
      <stop
         id="stop4600"
         offset="0.65071666"
         style="stop-color:#bfe0ff;stop-opacity:0;" />
      <stop
         id="stop4602"
         offset="1"
         style="stop-color:#bfd8ff;stop-opacity:0;" />
    </linearGradient>
    <linearGradient
       id="linearGradient4501">
      <stop
         style="stop-color:#e6f9ff;stop-opacity:1;"
         offset="0"
         id="stop4503" />
      <stop
         id="stop4572"
         offset="0.44850001"
         style="stop-color:#bfdeff;stop-opacity:1;" />
      <stop
         style="stop-color:#bfd8ff;stop-opacity:0;"
         offset="1"
         id="stop4574" />
      <stop
         style="stop-color:#bfe5ff;stop-opacity:0;"
         offset="1"
         id="stop4505" />
    </linearGradient>
    <linearGradient
       id="linearGradient4933">
      <stop
         style="stop-color:#ffffff;stop-opacity:1;"
         offset="0"
         id="stop4935" />
      <stop
         id="stop4941"
         offset="0.20463082"
         style="stop-color:#ffffff;stop-opacity:1;" />
      <stop
         style="stop-color:#b4b4b4;stop-opacity:1;"
         offset="0.31481665"
         id="stop4943" />
      <stop
         id="stop4945"
         offset="0.6916675"
         style="stop-color:#363636;stop-opacity:1;" />
      <stop
         style="stop-color:#d4d4d4;stop-opacity:1;"
         offset="0.87152815"
         id="stop4947" />
      <stop
         style="stop-color:#8a8a8a;stop-opacity:1;"
         offset="1"
         id="stop4937" />
    </linearGradient>
    <radialGradient
       inkscape:collect="always"
       xlink:href="#linearGradient4933"
       id="radialGradient4246"
       gradientUnits="userSpaceOnUse"
       gradientTransform="matrix(0.8105411,-1.7444263,1.1504546,0.5345544,-363.40077,583.218)"
       cx="239.52588"
       cy="355.32135"
       fx="239.52588"
       fy="355.32135"
       r="0.78567421" />
    <linearGradient
       inkscape:collect="always"
       id="linearGradient4986">
      <stop
         style="stop-color:#57401e;stop-opacity:1;"
         offset="0"
         id="stop4988" />
      <stop
         style="stop-color:#57401e;stop-opacity:0;"
         offset="1"
         id="stop4990" />
    </linearGradient>
    <radialGradient
       inkscape:collect="always"
       xlink:href="#linearGradient4986"
       id="radialGradient4244"
       gradientUnits="userSpaceOnUse"
       gradientTransform="matrix(1.3473879,7.7488879e-2,-3.9240977e-2,0.6823278,-69.517585,94.329595)"
       cx="240.284"
       cy="355.60196"
       fx="240.284"
       fy="355.60196"
       r="1.5975375" />
    <linearGradient
       inkscape:collect="always"
       id="linearGradient3739">
      <stop
         style="stop-color:#babdb6;stop-opacity:1;"
         offset="0"
         id="stop3741" />
      <stop
         style="stop-color:#babdb6;stop-opacity:0;"
         offset="1"
         id="stop3743" />
    </linearGradient>
    <linearGradient
       id="linearGradient3413"
       inkscape:collect="always">
      <stop
         id="stop3415"
         offset="0"
         style="stop-color:#debc85;stop-opacity:1" />
      <stop
         id="stop3417"
         offset="1"
         style="stop-color:#debc85;stop-opacity:0" />
    </linearGradient>
    <linearGradient
       id="linearGradient3339">
      <stop
         style="stop-color:#ffffff;stop-opacity:1;"
         offset="0"
         id="stop3341" />
      <stop
         style="stop-color:#d7e8ff;stop-opacity:0;"
         offset="1"
         id="stop3343" />
    </linearGradient>
    <linearGradient
       inkscape:collect="always"
       id="linearGradient3321">
      <stop
         style="stop-color:#356baf;stop-opacity:1"
         offset="0"
         id="stop3323" />
      <stop
         style="stop-color:#323232;stop-opacity:1"
         offset="1"
         id="stop3325" />
    </linearGradient>
    <linearGradient
       inkscape:collect="always"
       id="linearGradient3309">
      <stop
         style="stop-color:#ffbf00;stop-opacity:1"
         offset="0"
         id="stop3311" />
      <stop
         style="stop-color:#4d2600;stop-opacity:1"
         offset="1"
         id="stop3313" />
    </linearGradient>
    <linearGradient
       inkscape:collect="always"
       id="linearGradient3250">
      <stop
         style="stop-color:#ffaa00;stop-opacity:1;"
         offset="0"
         id="stop3252" />
      <stop
         style="stop-color:#ec7a00;stop-opacity:1"
         offset="1"
         id="stop3254" />
    </linearGradient>
    <linearGradient
       inkscape:collect="always"
       id="linearGradient3233">
      <stop
         style="stop-color:#ffffbf;stop-opacity:1;"
         offset="0"
         id="stop3235" />
      <stop
         style="stop-color:#ffffbf;stop-opacity:0;"
         offset="1"
         id="stop3237" />
    </linearGradient>
    <inkscape:perspective
       sodipodi:type="inkscape:persp3d"
       inkscape:vp_x="0 : 32 : 1"
       inkscape:vp_y="0 : 1000 : 0"
       inkscape:vp_z="64 : 32 : 1"
       inkscape:persp3d-origin="32 : 21.333333 : 1"
       id="perspective2391" />
    <radialGradient
       inkscape:collect="always"
       xlink:href="#linearGradient3413"
       id="radialGradient3182"
       cx="38.911739"
       cy="37.600842"
       fx="38.911739"
       fy="37.600842"
       r="14.171764"
       gradientTransform="matrix(0.4245438,0.4888719,-0.5220177,0.5174025,41.837263,5.6106591)"
       gradientUnits="userSpaceOnUse" />
    <radialGradient
       inkscape:collect="always"
       xlink:href="#linearGradient3413"
       id="radialGradient3186"
       gradientUnits="userSpaceOnUse"
       gradientTransform="matrix(0.4593771,0.3003983,-0.3033508,0.5294597,36.541793,10.475992)"
       cx="27.488573"
       cy="23.328754"
       fx="27.488573"
       fy="23.328754"
       r="14.171764" />
    <radialGradient
       inkscape:collect="always"
       xlink:href="#linearGradient3233"
       id="radialGradient3239"
       cx="44.657055"
       cy="7.0816183"
       fx="44.657055"
       fy="7.0816183"
       r="10.143396"
       gradientUnits="userSpaceOnUse"
       gradientTransform="matrix(1.5309882,-0.416852,0.3282204,1.2054672,-26.036699,17.160347)" />
    <linearGradient
       inkscape:collect="always"
       xlink:href="#linearGradient3250"
       id="linearGradient3256"
       x1="49.267925"
       y1="11.350944"
       x2="51.555767"
       y2="21.494339"
       gradientUnits="userSpaceOnUse" />
    <radialGradient
       inkscape:collect="always"
       xlink:href="#linearGradient3233"
       id="radialGradient3300"
       gradientUnits="userSpaceOnUse"
       gradientTransform="matrix(1.5309882,-0.18072,0.3282204,0.5226123,-24.641215,18.401215)"
       cx="44.657055"
       cy="7.0816183"
       fx="44.657055"
       fy="7.0816183"
       r="10.143396" />
    <radialGradient
       inkscape:collect="always"
       xlink:href="#linearGradient3233"
       id="radialGradient3304"
       gradientUnits="userSpaceOnUse"
       gradientTransform="matrix(1.5309882,-0.416852,0.3282204,1.2054672,-26.036699,17.160347)"
       cx="44.657055"
       cy="7.0816183"
       fx="44.657055"
       fy="7.0816183"
       r="10.143396" />
    <linearGradient
       inkscape:collect="always"
       xlink:href="#linearGradient3309"
       id="linearGradient3315"
       x1="50.65625"
       y1="20.28125"
       x2="50.819099"
       y2="18.02669"
       gradientUnits="userSpaceOnUse"
       gradientTransform="matrix(1,0,0,1.4766951,-3.7482713,-5.1517046)" />
    <radialGradient
       inkscape:collect="always"
       xlink:href="#linearGradient3321"
       id="radialGradient3327"
       cx="47.241253"
       cy="12.90445"
       fx="47.241253"
       fy="12.90445"
       r="1.2449403"
       gradientTransform="matrix(1.6747618,0.1260228,-0.2866207,3.8090017,-28.101478,-41.352148)"
       gradientUnits="userSpaceOnUse" />
    <linearGradient
       inkscape:collect="always"
       xlink:href="#linearGradient3339"
       id="linearGradient3345"
       x1="45.828846"
       y1="10.800349"
       x2="47.683525"
       y2="12.091322"
       gradientUnits="userSpaceOnUse" />
    <radialGradient
       inkscape:collect="always"
       xlink:href="#linearGradient3321"
       id="radialGradient3351"
       gradientUnits="userSpaceOnUse"
       gradientTransform="matrix(1.6747618,0.1260228,-0.2866207,3.8090017,-28.101478,-41.352148)"
       cx="47.241253"
       cy="12.90445"
       fx="47.241253"
       fy="12.90445"
       r="1.2449403" />
    <radialGradient
       inkscape:collect="always"
       xlink:href="#linearGradient3321"
       id="radialGradient3353"
       gradientUnits="userSpaceOnUse"
       gradientTransform="matrix(2.1475362,-0.3057534,0.6953914,4.8842582,-62.400602,-35.116299)"
       cx="47.241253"
       cy="12.90445"
       fx="47.241253"
       fy="12.90445"
       r="1.2449403" />
    <linearGradient
       inkscape:collect="always"
       xlink:href="#linearGradient3339"
       id="linearGradient3360"
       gradientUnits="userSpaceOnUse"
       x1="45.828846"
       y1="10.800349"
       x2="47.683525"
       y2="12.091322" />
    <linearGradient
       inkscape:collect="always"
       xlink:href="#linearGradient3339"
       id="linearGradient3362"
       gradientUnits="userSpaceOnUse"
       x1="45.828846"
       y1="10.800349"
       x2="47.683525"
       y2="12.091322"
       gradientTransform="matrix(0.8948055,-0.2061411,0.1968384,0.9370946,2.9778209,10.8485)" />
    <radialGradient
       inkscape:collect="always"
       xlink:href="#linearGradient3321"
       id="radialGradient3381"
       gradientUnits="userSpaceOnUse"
       gradientTransform="matrix(1.6747618,0.1260228,-0.2866207,3.8090017,-28.101478,-41.352148)"
       cx="47.241253"
       cy="12.90445"
       fx="47.241253"
       fy="12.90445"
       r="1.2449403" />
    <filter
       inkscape:collect="always"
       id="filter3453">
      <feGaussianBlur
         inkscape:collect="always"
         stdDeviation="0.18448981"
         id="feGaussianBlur3455" />
    </filter>
    <filter
       inkscape:collect="always"
       id="filter3466"
       x="-0.055984867"
       width="1.1119697"
       y="-0.33654582"
       height="1.6730916">
      <feGaussianBlur
         inkscape:collect="always"
         stdDeviation="1.2419147"
         id="feGaussianBlur3468" />
    </filter>
    <filter
       inkscape:collect="always"
       id="filter3612"
       x="-0.10809567"
       width="1.2161913"
       y="-0.24845971"
       height="1.4969194">
      <feGaussianBlur
         inkscape:collect="always"
         stdDeviation="0.16700841"
         id="feGaussianBlur3614" />
    </filter>
    <filter
       inkscape:collect="always"
       id="filter3720">
      <feGaussianBlur
         inkscape:collect="always"
         stdDeviation="0.51799575"
         id="feGaussianBlur3722" />
    </filter>
    <linearGradient
       inkscape:collect="always"
       xlink:href="#linearGradient3739"
       id="linearGradient3755"
       x1="51.457531"
       y1="28.503241"
       x2="50.244514"
       y2="29.269358"
       gradientUnits="userSpaceOnUse"
       gradientTransform="matrix(1.1576749,0,0,1.1950841,-7.338863,-5.4368683)" />
    <radialGradient
       inkscape:collect="always"
       xlink:href="#linearGradient3739"
       id="radialGradient3761"
       cx="47.066471"
       cy="24.380356"
       fx="49.232174"
       fy="24.725574"
       r="4.8588398"
       gradientTransform="matrix(0.9905061,1.5701001e-2,-5.1098527e-3,0.3435278,0.5665899,17.715711)"
       gradientUnits="userSpaceOnUse" />
    <filter
       inkscape:collect="always"
       id="filter4459"
       x="-0.10205258"
       width="1.2041052"
       y="-0.18653508"
       height="1.3730702">
      <feGaussianBlur
         inkscape:collect="always"
         stdDeviation="0.12941853"
         id="feGaussianBlur4461" />
    </filter>
    <filter
       inkscape:collect="always"
       id="filter4463"
       x="-0.15971371"
       width="1.3194274"
       y="-0.08662915"
       height="1.1732583">
      <feGaussianBlur
         inkscape:collect="always"
         stdDeviation="0.12941853"
         id="feGaussianBlur4465" />
    </filter>
    <radialGradient
       inkscape:collect="always"
       xlink:href="#linearGradient4501"
       id="radialGradient4511"
       gradientUnits="userSpaceOnUse"
       gradientTransform="matrix(2.1649733,0.1992196,-0.4971706,5.4028838,-32.472236,-153.34324)"
       cx="43.664871"
       cy="33.766571"
       fx="43.664871"
       fy="33.766571"
       r="0.83283772" />
    <radialGradient
       inkscape:collect="always"
       xlink:href="#linearGradient4501"
       id="radialGradient4523"
       cx="45.934982"
       cy="32.334171"
       fx="45.934982"
       fy="32.334171"
       r="1.0924472"
       gradientTransform="matrix(1,0,0,4.443894,0,-110.89226)"
       gradientUnits="userSpaceOnUse" />
    <radialGradient
       inkscape:collect="always"
       xlink:href="#linearGradient4594"
       id="radialGradient4606"
       cx="44.721249"
       cy="33.237251"
       fx="44.721249"
       fy="33.237251"
       r="0.83283772"
       gradientTransform="matrix(-0.9594975,0.2817172,-1.0000115,-3.4059272,121.42085,131.21241)"
       gradientUnits="userSpaceOnUse" />
    <filter
       inkscape:collect="always"
       id="filter4732">
      <feGaussianBlur
         inkscape:collect="always"
         stdDeviation="0.13807069"
         id="feGaussianBlur4734" />
    </filter>
  </defs>
  <sodipodi:namedview
     id="base"
     pagecolor="#ffffff"
     bordercolor="#666666"
     borderopacity="1.0"
     inkscape:pageopacity="0.0"
     inkscape:pageshadow="2"
     inkscape:zoom="6.4634146"
     inkscape:cx="6.1220814"
     inkscape:cy="29.181238"
     inkscape:current-layer="layer1"
     showgrid="true"
     inkscape:document-units="px"
     inkscape:grid-bbox="true"
     showguides="true"
     inkscape:guide-bbox="true"
     inkscape:window-width="1270"
     inkscape:window-height="741"
     inkscape:window-x="0"
     inkscape:window-y="0" />
  <metadata
     id="metadata2388">
    <rdf:RDF>
      <cc:Work
         rdf:about="">
        <dc:format>image/svg+xml</dc:format>
        <dc:type
           rdf:resource="http://purl.org/dc/dcmitype/StillImage" />
      </cc:Work>
    </rdf:RDF>
  </metadata>
  <g
     id="layer1"
     inkscape:label="Layer 1"
     inkscape:groupmode="layer">
    <path
       style="opacity:0.49779741000000000;fill:#382509;fill-rule:evenodd;stroke:none;stroke-width:1px;stroke-linecap:butt;stroke-linejoin:miter;stroke-opacity:1;filter:url(#filter3466)"
       d="M 53.114255,12.144521 C 53.114255,12.144521 48.255372,23.154281 48,26.21875 C 47.765059,29.038041 46.952348,48.227538 46.8125,51.53125 C 46.558541,51.524959 46.336209,51.53212 46.0625,51.53125 C 42.297752,51.51928 36.80341,52.029235 35.75,52.125 C 34.345452,52.252688 26.048351,53.408938 23.75,53.28125 C 21.451649,53.153565 9.2046012,53.161622 6.90625,52.90625 C 6.778564,53.289309 8.1801599,54.033937 11.5,53.90625 C 14.819841,53.778565 18.519521,54.317875 20.5625,54.0625 C 22.605479,53.807129 27.844468,54.317875 30.78125,54.0625 C 33.718032,53.807129 35.376702,54.043695 36.78125,54.9375 C 38.185798,55.831304 40.488273,55.330319 42.53125,55.96875 C 44.574229,56.607182 41.994628,58.788325 42.25,59.9375 C 42.505372,61.086676 44.822259,59.805423 45.84375,58.65625 C 46.865239,57.507075 51.46069,56.206304 51.84375,55.3125 C 52.04866,54.834378 51.954912,54.022764 51.4375,53.28125 L 51.59375,53.28125 C 52.870613,48.429175 53.374016,39.752952 54.140133,38.220718 C 54.906249,36.688485 54.540882,31.010988 53.888164,29.511729 C 52.706749,26.798077 61.873023,23.483875 59.5,18.8125 C 57.326956,14.534791 53.114255,12.144521 53.114255,12.144521 z M 57.75,54.625 C 57.044484,54.659416 56.278719,54.764618 55.65625,54.8125 C 55.911622,55.067874 54.887446,56.99194 55.78125,57.375 C 56.675053,57.75806 60.380374,56.998299 60.125,55.59375 C 59.965393,54.715909 58.92586,54.567641 57.75,54.625 z"
       id="path3461"
       sodipodi:nodetypes="cscssscssssssssccssscccssc" />
    <path
       style="fill:#382509;fill-opacity:1;fill-rule:evenodd;stroke:none;stroke-width:1px;stroke-linecap:butt;stroke-linejoin:miter;stroke-opacity:1"
       d="M 5.5077837,41.246164 C 5.4456951,41.256711 5.3741537,41.301586 5.3232092,41.378003 C 4.9156525,41.989337 6.1938437,51.001453 7.2127357,53.039237 L 7.7316337,53.091475 C 7.7316337,53.091475 7.3655697,45.878738 6.9580127,44.146622 C 6.6014007,42.631021 5.9424047,41.172334 5.5077837,41.246164 z M 33.856753,50.462854 L 23.806541,52.427903 C 23.672314,51.906613 22.35373,51.582342 21.723983,51.582342 C 21.097993,51.582342 20.596409,51.962239 20.458329,52.478847 C 19.233358,52.459393 15.298843,52.373225 11.967896,52.426111 C 9.7118067,52.461932 7.9481487,52.56601 7.9863567,52.795261 C 8.0882457,53.406594 13.880409,53.21227 16.529526,53.823605 C 18.516365,54.282107 20.105255,53.821863 20.774742,53.559927 C 21.560251,53.389756 22.362425,53.445601 23.147844,53.40172 C 24.437949,53.462011 34.341353,54.432701 35.277033,52.795261 L 33.856753,50.462854 z"
       id="path3213"
       sodipodi:nodetypes="csccscccscssscccc" />
    <path
       style="opacity:1;fill:#8f6b32;fill-opacity:1;fill-rule:nonzero;stroke:none;stroke-width:1.5;stroke-linecap:round;stroke-linejoin:round;stroke-miterlimit:4;stroke-dasharray:none;stroke-dashoffset:0;stroke-opacity:1"
       d="M 50.172265,46.375521 C 49.755502,40.762683 49.636627,38.707751 51.141572,31.552306 C 51.69107,28.939651 49.533355,26.507523 47.012229,26.249064 C 44.491101,25.990605 42.237935,27.941709 41.997823,30.614913 C 42.218677,38.228475 33.944444,36.581112 32.581458,45.623817 C 32.127702,50.675541 35.72357,55.187895 40.590744,55.686866 C 45.45792,56.185836 50.589024,51.988359 50.172265,46.375521 z"
       id="path3163"
       sodipodi:nodetypes="cscccss" />
    <path
       style="opacity:1;fill:#803f00;fill-opacity:1;fill-rule:nonzero;stroke:none;stroke-width:1.50000000000000000;stroke-linecap:round;stroke-linejoin:round;stroke-miterlimit:4;stroke-dasharray:none;stroke-dashoffset:0;stroke-opacity:1;filter:url(#filter3453)"
       d="M 46.53125 26.21875 C 45.121359 26.225528 43.846015 26.930252 43 28.03125 C 43.527232 27.877356 44.080229 27.815948 44.65625 27.875 C 47.177376 28.133459 49.330748 30.574845 48.78125 33.1875 C 47.276305 40.342945 47.395737 42.387161 47.8125 48 C 48.018458 50.773804 46.864935 53.188525 45.0625 54.875 C 48.131894 53.420325 50.474022 50.233826 50.1875 46.375 C 49.770738 40.76216 49.651305 38.717945 51.15625 31.5625 C 51.705749 28.949846 49.521126 26.508459 47 26.25 C 46.842429 26.233846 46.686301 26.218005 46.53125 26.21875 z "
       id="path3444" />
    <path
       sodipodi:nodetypes="cscccss"
       id="path3174"
       d="M 50.172265,46.375521 C 49.755502,40.762683 49.636627,38.707751 51.141572,31.552306 C 51.69107,28.939651 49.533355,26.507523 47.012229,26.249064 C 44.491101,25.990605 42.237935,27.941709 41.997823,30.614913 C 42.218677,38.228475 33.944444,36.581112 32.581458,45.623817 C 32.127702,50.675541 35.72357,55.187895 40.590744,55.686866 C 45.45792,56.185836 50.589024,51.988359 50.172265,46.375521 z"
       style="opacity:1;fill:url(#radialGradient3182);fill-opacity:1;fill-rule:nonzero;stroke:none;stroke-width:1.5;stroke-linecap:round;stroke-linejoin:round;stroke-miterlimit:4;stroke-dasharray:none;stroke-dashoffset:0;stroke-opacity:1" />
    <path
       style="opacity:1;fill:url(#radialGradient3186);fill-opacity:1;fill-rule:nonzero;stroke:none;stroke-width:1.5;stroke-linecap:round;stroke-linejoin:round;stroke-miterlimit:4;stroke-dasharray:none;stroke-dashoffset:0;stroke-opacity:1"
       d="M 50.172265,46.375521 C 49.755502,40.762683 49.636627,38.707751 51.141572,31.552306 C 51.69107,28.939651 49.533355,26.507523 47.012229,26.249064 C 44.491101,25.990605 42.237935,27.941709 41.997823,30.614913 C 42.218677,38.228475 33.944444,36.581112 32.581458,45.623817 C 32.127702,50.675541 35.72357,55.187895 40.590744,55.686866 C 45.45792,56.185836 50.589024,51.988359 50.172265,46.375521 z"
       id="path3184"
       sodipodi:nodetypes="cscccss" />
    <path
       style="opacity:1;fill:#57401e;fill-opacity:1;fill-rule:nonzero;stroke:none;stroke-width:1.5;stroke-linecap:round;stroke-linejoin:round;stroke-miterlimit:4;stroke-dasharray:none;stroke-dashoffset:0;stroke-opacity:1"
       d="M 47.009405,26.254462 C 44.488277,25.996003 42.232882,27.944878 41.99277,30.618082 C 42.213624,38.231644 33.953554,36.585081 32.590565,45.627786 C 32.268009,49.218864 33.994977,52.527338 36.767151,54.325381 C 34.242843,52.474504 32.710734,49.307765 33.016668,45.901757 C 34.379655,36.859052 42.639726,38.505614 42.418874,30.892053 C 42.658985,28.218848 44.914379,26.269973 47.435507,26.528433 C 48.115433,26.598137 48.774577,26.839052 49.355665,27.185858 C 48.675715,26.67603 47.864324,26.342106 47.009405,26.254462 z"
       id="path3188" />
    <path
       style="opacity:1;fill:#382509;fill-opacity:1;fill-rule:nonzero;stroke:none;stroke-width:1.50000000000000000;stroke-linecap:round;stroke-linejoin:round;stroke-miterlimit:4;stroke-dasharray:none;stroke-dashoffset:0;stroke-opacity:1"
       d="M 50.27328,28.096404 C 50.705023,28.92027 50.877886,29.879097 50.671824,30.858844 C 49.166879,38.014288 49.295471,40.07446 49.712232,45.6873 C 50.128993,51.300137 44.984993,55.481881 40.117816,54.982911 C 37.547322,54.71939 35.350927,53.342225 33.898879,51.351622 C 35.31673,53.714789 37.72179,55.386269 40.584323,55.67973 C 45.451497,56.1787 50.595498,51.996955 50.178738,46.384117 C 49.761976,40.771278 49.633385,38.711106 51.13833,31.555661 C 51.405771,30.284089 51.018171,29.05267 50.27328,28.096404 z"
       id="path3197" />
    <path
       style="fill:#382509;fill-opacity:1;fill-rule:evenodd;stroke:none;stroke-width:1px;stroke-linecap:butt;stroke-linejoin:miter;stroke-opacity:1"
       d="M 50.625536,30.861307 C 50.156589,30.785091 49.513312,32.326775 50.757375,34.025444 C 52.248008,36.436924 53.922632,39.197057 54.686177,41.61937 C 55.100221,42.481451 55.137813,42.787441 54.923488,43.755162 C 54.775044,45.091149 55.439121,48.747446 55.661786,50.083434 C 55.884451,51.419421 56.030936,55.04058 56.030935,55.040581 C 56.030935,55.040581 56.319022,55.193906 56.69013,55.119684 C 57.061238,55.045463 56.843455,47.845124 56.769234,46.286471 C 56.709725,45.036782 56.352867,43.463314 55.951832,42.384037 C 56.127078,42.193446 56.241878,41.94419 56.241878,41.61937 C 56.241878,41.045787 55.907399,40.564658 55.477211,40.564658 C 54.100109,37.821586 52.597561,33.973627 50.810111,31.019514 C 50.7566,30.938172 50.692529,30.872195 50.625536,30.861307 z M 55.663486,55.09275 C 54.995491,55.315414 54.318987,55.477111 53.947879,55.699776 C 53.576772,55.922441 52.99668,56.833591 53.367787,56.833591 C 53.738896,56.833593 53.950803,56.612886 54.396132,56.464442 C 54.84146,56.316 56.167307,55.296893 56.167307,55.296893 L 55.663486,55.09275 z M 56.92744,55.198788 L 56.632862,55.369763 C 56.632862,55.369763 58.430016,56.997374 58.65268,56.552045 C 58.875344,56.106716 57.521211,55.273011 56.92744,55.198788 z M 56.400084,55.330627 C 55.415578,55.960985 55.208506,56.945836 56.189142,57.782832 C 56.634471,57.560168 56.69013,57.053333 56.69013,56.385339 C 56.690129,55.717345 56.400084,55.330627 56.400084,55.330627 z"
       id="path3278"
       sodipodi:nodetypes="ccccscsscsccccsssccccscccsc" />
    <path
       style="fill:#382509;fill-opacity:1;fill-rule:evenodd;stroke:none;stroke-width:1px;stroke-linecap:butt;stroke-linejoin:miter;stroke-opacity:1"
       d="M 30.21382,46.494305 C 29.809804,46.494305 29.430719,46.596377 29.053637,46.757983 C 28.299473,47.081195 28.422246,47.414912 29.607361,47.52265 C 30.792477,47.630386 31.532211,46.863454 31.532211,46.863454 C 31.047391,46.59411 30.617837,46.494305 30.21382,46.494305 z M 31.980463,46.968926 C 31.226299,47.292138 28.954135,48.59693 29.923775,48.920143 C 30.893413,49.243357 31.65725,48.691899 31.980463,48.260948 C 32.303677,47.829997 32.303677,46.968926 31.980463,46.968926 z"
       id="path3293" />
    <path
       style="opacity:1;fill:#57401e;fill-opacity:1;fill-rule:nonzero;stroke:none;stroke-width:1.5;stroke-linecap:round;stroke-linejoin:round;stroke-miterlimit:4;stroke-dasharray:none;stroke-dashoffset:0;stroke-opacity:1"
       id="path3419"
       d="M 34.356823,40.957461 C 34.397346,40.896519 34.445816,40.842357 34.493348,40.787458 C 34.577067,40.689957 34.666269,40.598116 34.751893,40.502554 C 34.858917,40.387983 34.972007,40.280486 35.08808,40.176466 C 35.229218,40.052149 35.379644,39.941451 35.535818,39.839853 C 35.711552,39.717208 35.895313,39.60891 36.082392,39.507356 C 36.288415,39.396841 36.501967,39.303729 36.717104,39.215528 C 36.948974,39.121338 37.18523,39.040508 37.4241,38.969113 C 37.674754,38.894186 37.931655,38.846748 38.188706,38.804805 C 38.447714,38.760275 38.70906,38.738759 38.971044,38.729543 C 39.21825,38.722774 39.465002,38.741203 39.709616,38.778014 C 39.945004,38.818042 40.175583,38.883306 40.401311,38.96394 C 40.618862,39.043065 40.821546,39.157919 41.016547,39.286008 C 41.217737,39.41769 41.388176,39.591059 41.550013,39.772162 C 41.718713,39.96514 41.867828,40.1758 42.006182,40.394004 C 42.15096,40.622931 42.25574,40.875297 42.348983,41.131618 C 42.441181,41.390861 42.51155,41.657658 42.571902,41.927014 C 42.630397,42.183066 42.660642,42.443925 42.677039,42.706369 C 42.693832,43.218767 42.715483,43.736937 42.632508,44.24372 C 42.591926,44.491825 42.497707,44.722154 42.391284,44.945133 C 42.282154,45.168862 42.142698,45.372524 41.993648,45.567547 C 41.849056,45.757194 41.682731,45.924089 41.501869,46.07364 C 41.335524,46.20782 41.15371,46.317046 40.9655,46.412058 C 40.8013,46.492629 40.628325,46.546207 40.45045,46.578193 C 40.294817,46.602591 40.137704,46.590432 39.983037,46.565341 C 39.83161,46.538995 39.692012,46.474363 39.559097,46.395316 C 39.420651,46.30971 39.303287,46.194279 39.193374,46.071792 C 39.074531,45.935386 38.975449,45.781985 38.885117,45.623296 C 38.793808,45.462831 38.726542,45.289787 38.667544,45.113632 C 38.608013,44.936214 38.579086,44.750156 38.558137,44.563829 C 38.524858,44.109507 38.510457,43.647619 38.566502,43.195071 C 38.594879,43.008088 38.649538,42.826835 38.714889,42.651103 C 38.783757,42.471524 38.870592,42.302353 38.971705,42.141311 C 39.071657,41.98202 39.192954,41.844098 39.33572,41.728189 C 39.471159,41.62083 39.624278,41.546001 39.783679,41.489284 C 39.937526,41.434094 40.097078,41.431485 40.256612,41.449986 C 40.406517,41.470253 40.545074,41.530796 40.677124,41.606108 C 40.757624,41.65228 40.830594,41.710808 40.901634,41.771582 C 41.202098,42.028624 41.132589,42.873334 40.846691,42.598137 L 40.846691,42.598137 C 40.781722,42.5356 40.714035,42.4764 40.638017,42.429332 C 40.516137,42.355381 40.387851,42.295053 40.247674,42.273675 C 40.099328,42.25421 39.952052,42.256186 39.809226,42.309753 C 39.658374,42.366494 39.513436,42.439714 39.387198,42.545927 C 39.253954,42.662044 39.140861,42.79892 39.048073,42.9537 C 38.953086,43.115151 38.871327,43.284322 38.807686,43.462647 C 38.748586,43.638191 38.697566,43.817906 38.678251,44.003945 C 38.591871,44.99654 38.672533,42.963676 38.670661,43.754843 C 38.685411,43.939674 38.710644,44.124345 38.762402,44.301988 C 38.817752,44.476404 38.877663,44.649779 38.96479,44.809647 C 39.04955,44.966674 39.142526,45.118715 39.256512,45.253943 C 39.359322,45.373616 39.469037,45.487192 39.599505,45.572828 C 39.722869,45.650624 39.852832,45.715049 39.995194,45.742063 C 40.141341,45.767644 40.290298,45.778991 40.437743,45.757868 C 40.608631,45.728181 40.774133,45.676327 40.931617,45.598754 C 41.114593,45.506497 41.290329,45.39866 41.451083,45.266991 C 41.625596,45.117829 41.786514,44.952297 41.925889,44.765346 C 42.069836,44.570769 42.204106,44.36771 42.307257,44.144921 C 42.407621,43.922172 42.49215,43.691641 42.52582,43.44561 C 42.542418,43.324014 42.555047,43.203987 42.560301,43.081157 C 42.562042,43.040465 42.563693,42.918291 42.564099,42.959023 C 42.577135,44.269057 42.567807,43.73767 42.563339,43.50086 C 42.550057,43.238556 42.527442,42.977341 42.471145,42.720821 C 42.413649,42.451781 42.34825,42.184609 42.258179,41.925481 C 42.170693,41.671183 42.070815,41.420673 41.931855,41.192622 C 41.799178,40.974618 41.652391,40.76647 41.488351,40.57384 C 41.332434,40.395368 41.168649,40.223505 40.974083,40.092327 C 40.784987,39.964484 40.588232,39.849412 40.376369,39.76949 C 40.155623,39.687855 39.929658,39.62311 39.698933,39.582055 C 39.458635,39.545481 39.216485,39.525141 38.973506,39.530728 C 38.714582,39.539632 38.456073,39.558191 38.200242,39.60394 C 37.946003,39.646163 37.692422,39.69523 37.444878,39.771246 C 37.208232,39.842826 36.974231,39.923576 36.745248,40.019658 C 36.532679,40.109021 36.321757,40.203369 36.1187,40.315411 C 35.933839,40.418634 35.752868,40.529236 35.578591,40.651732 C 35.426308,40.755768 35.280098,40.869414 35.142789,40.995034 C 35.02942,41.100663 34.918628,41.209509 34.814579,41.325591 C 34.728012,41.421822 34.640331,41.517114 34.559998,41.619397 C 34.51352,41.678397 34.470209,41.73973 34.425282,41.799994 C 34.180776,42.127974 34.129587,41.299206 34.356823,40.957461 z" />
    <path
       style="opacity:1;fill:#57401e;fill-opacity:1;fill-rule:nonzero;stroke:none;stroke-width:1.5;stroke-linecap:round;stroke-linejoin:round;stroke-miterlimit:4;stroke-dasharray:none;stroke-dashoffset:0;stroke-opacity:1"
       id="path3430"
       d="M 46.299906,36.877786 C 46.261116,36.799299 46.214386,36.725452 46.166869,36.65205 C 46.097903,36.54413 46.015058,36.446771 45.931194,36.350388 C 45.82285,36.229592 45.705447,36.118413 45.578959,36.016957 C 45.427798,35.888692 45.261184,35.782794 45.089059,35.685449 C 44.883721,35.572893 44.668965,35.478881 44.449736,35.397131 C 44.226147,35.313916 43.993701,35.25927 43.758926,35.219305 C 43.529065,35.179084 43.296469,35.167366 43.063703,35.176733 C 43.025881,35.180291 42.988058,35.18385 42.950236,35.187408 C 42.469599,35.23263 42.460482,34.254635 42.941367,34.212127 L 42.941367,34.212127 C 42.980817,34.20864 43.020267,34.205152 43.059717,34.201665 C 43.299257,34.191717 43.538662,34.205467 43.775389,34.245023 C 44.016029,34.286158 44.254472,34.340659 44.484231,34.424549 C 44.707434,34.506577 44.927493,34.597735 45.138317,34.708218 C 45.314987,34.80308 45.489616,34.903224 45.643808,35.032631 C 45.77675,35.131667 45.900058,35.240666 46.014052,35.361175 C 46.101842,35.454685 46.189806,35.54964 46.262414,35.655639 C 46.315501,35.724955 46.36478,35.798101 46.407049,35.874316 C 46.649316,36.311149 46.521221,37.325598 46.299906,36.877786 z" />
    <path
       style="fill:#debc85;fill-opacity:1;fill-rule:evenodd;stroke:none;stroke-width:1px;stroke-linecap:butt;stroke-linejoin:miter;stroke-opacity:1"
       d="M 5.5168617,40.988063 C 5.4547731,40.998611 5.3803062,41.036646 5.3293617,41.113063 C 5.2719028,41.199251 5.2315079,41.486005 5.2356117,41.863063 C 5.2423723,41.614918 5.2847412,41.429994 5.3293617,41.363063 C 5.3803062,41.286646 5.4547731,41.248609 5.5168617,41.238063 C 5.9514827,41.164233 6.5977497,42.628713 6.9543617,44.144313 C 7.1581407,45.010371 7.3431507,47.249614 7.4856117,49.269313 C 7.3411207,47.155068 7.1714457,44.816919 6.9543617,43.894313 C 6.5977497,42.378712 5.9514827,40.914233 5.5168617,40.988063 z M 7.4856117,49.269313 C 7.6186947,51.156059 7.6932707,52.616463 7.7043617,52.831813 L 7.7356117,52.831813 C 7.7356117,52.831812 7.6123907,51.124389 7.4856117,49.269313 z M 33.222181,50.398342 L 23.798112,52.175563 C 23.663885,51.654274 22.365359,51.331813 21.735612,51.331813 C 21.109622,51.331815 20.592442,51.721455 20.454362,52.238063 C 19.229391,52.218608 15.285309,52.122677 11.954362,52.175563 C 9.6982717,52.211386 7.9474037,52.321312 7.9856117,52.550563 C 7.9941027,52.601507 8.0594517,52.634876 8.1418617,52.675563 C 8.6061407,52.522733 10.102666,52.454962 11.954362,52.425563 C 15.285309,52.372677 19.229391,52.468609 20.454362,52.488063 C 20.592442,51.971455 21.109622,51.581812 21.735612,51.581813 C 22.365359,51.581813 23.663885,51.904275 23.798112,52.425563 L 33.222181,50.648342 L 33.222181,50.398342 z"
       id="path3432"
       sodipodi:nodetypes="cssssssscccccccscsscscsccc" />
    <g
       id="g3727"
       transform="translate(1.7876066,0.2553724)">
      <path
         sodipodi:nodetypes="cscsssc"
         id="path3208"
         d="M 48.658588,43.816961 C 51.094481,45.920119 49.509708,52.992537 46.824483,57.501954 C 45.641573,59.488469 44.733215,61.364612 43.03422,61.443944 C 40.926293,60.825398 39.082488,59.468663 40.383943,56.938924 C 41.335329,55.089641 41.411065,53.762991 41.69704,52.122042 C 42.504292,47.489981 46.134561,43.076313 48.242488,43.69486 C 48.374234,43.733519 48.538459,43.751384 48.658588,43.816961 z"
         style="opacity:1;fill:#382509;fill-opacity:1;fill-rule:nonzero;stroke:none;stroke-width:1.5;stroke-linecap:round;stroke-linejoin:round;stroke-miterlimit:4;stroke-dasharray:none;stroke-dashoffset:0;stroke-opacity:1" />
      <path
         id="path3437"
         d="M 47.611395,43.400255 C 45.472727,43.39245 42.210621,47.553588 41.453822,51.896147 C 41.167846,53.537096 41.119133,54.879392 40.167746,56.728673 C 39.612714,57.807532 39.646265,58.653895 40.011858,59.339796 C 39.915183,58.781187 40.012099,58.148258 40.401578,57.391197 C 41.352965,55.541913 41.401678,54.199619 41.687653,52.558671 C 42.494906,47.92661 46.12702,43.522175 48.234947,44.140722 C 48.366694,44.179382 48.54351,44.192062 48.663638,44.257638 C 48.96043,44.513889 49.221408,44.84177 49.404106,45.231938 C 49.21083,44.537846 48.886537,43.989456 48.429807,43.595115 C 48.309678,43.529538 48.132862,43.516858 48.001115,43.478199 C 47.869369,43.43954 47.753973,43.400775 47.611395,43.400255 z"
         style="opacity:1;fill:#debc85;fill-opacity:1;fill-rule:nonzero;stroke:none;stroke-width:1.5;stroke-linecap:round;stroke-linejoin:round;stroke-miterlimit:4;stroke-dasharray:none;stroke-dashoffset:0;stroke-opacity:1" />
      <path
         d="M 43.977123,50.904654 C 43.966033,50.835372 43.959982,50.765431 43.954189,50.695549 C 43.945098,50.586612 43.939559,50.477498 43.93877,50.368193 C 43.928621,50.022829 43.922893,49.680616 43.984398,49.341384 C 44.013177,49.176961 44.056378,49.015384 44.104763,48.855762 C 44.159563,48.678378 44.229422,48.50684 44.308024,48.33885 C 44.394258,48.162456 44.488064,47.990012 44.586252,47.820029 C 44.689648,47.648582 44.802308,47.483054 44.924018,47.32414 C 45.047376,47.164693 45.189248,47.021474 45.336774,46.884634 C 45.480525,46.75028 45.639466,46.634823 45.806744,46.531891 C 45.975078,46.428847 46.161384,46.368069 46.35194,46.322189 C 46.54504,46.276094 46.742639,46.271054 46.939831,46.281106 C 47.133575,46.288762 47.317046,46.346874 47.495442,46.418285 C 47.679868,46.494667 47.853273,46.593442 48.02074,46.701371 C 48.179992,46.801876 48.322365,46.924364 48.456755,47.055509 C 48.581698,47.178365 48.685925,47.318651 48.770927,47.471426 C 48.93378,47.813902 48.890623,48.208033 48.859608,48.577709 C 48.840574,48.773078 48.791469,48.963056 48.732462,49.149651 C 48.667854,49.35231 48.5467,49.524399 48.415218,49.688463 C 48.270624,49.865485 48.106985,50.025165 47.9386,50.179196 C 47.783794,50.325076 47.609534,50.444541 47.425019,50.548998 C 47.258451,50.637712 47.083136,50.706434 46.899092,50.747689 C 46.724899,50.782904 46.554574,50.75343 46.387195,50.70324 C 46.2321,50.648875 46.089199,50.566622 45.954149,50.474041 C 45.822966,50.381837 45.726831,50.254997 45.636938,50.124512 C 45.554427,50.003263 45.489924,49.872006 45.439516,49.734616 C 45.354189,49.425369 45.340214,49.07949 45.408565,48.768455 C 45.437111,48.650517 45.504823,48.554125 45.592676,48.472998 C 45.697958,48.387186 45.826146,48.337566 45.953249,48.293822 C 46.080908,48.250261 46.213726,48.233045 46.347988,48.23252 C 46.468917,48.233721 46.584373,48.265357 46.69571,48.31002 C 46.762156,48.33787 46.822033,48.377223 46.880404,48.418833 C 47.129281,48.59625 47.079233,49.225911 46.840524,49.035033 L 46.840524,49.035033 C 46.787703,48.992795 46.732933,48.953109 46.671557,48.923914 C 46.568421,48.879601 46.461128,48.847742 46.347918,48.845338 C 46.22069,48.844512 46.094715,48.860127 45.974062,48.902613 C 45.8547,48.946518 45.733797,48.995357 45.640958,49.085266 C 45.565212,49.168498 45.511071,49.263558 45.494793,49.37663 C 45.469294,49.615844 45.490496,49.436432 45.486407,48.883754 C 45.485234,48.725346 45.479506,49.291624 45.515599,49.12928 C 45.556798,49.267915 45.618297,49.399484 45.696364,49.521358 C 45.779252,49.649549 45.868569,49.775504 45.991505,49.868747 C 46.119254,49.962336 46.256279,50.04385 46.405244,50.099146 C 46.562083,50.148767 46.721664,50.179782 46.885855,50.145658 C 47.063931,50.10601 47.233355,50.038151 47.394208,49.952055 C 47.574438,49.849749 47.743327,49.730508 47.894708,49.588255 C 48.0612,49.435664 48.221374,49.275633 48.361393,49.097962 C 48.486717,48.932374 48.598744,48.758371 48.656476,48.55649 C 48.711592,48.36979 48.756884,48.179775 48.769609,47.984841 C 48.780645,47.738714 48.777171,47.78134 48.776369,48.392493 C 48.776177,48.539095 48.749609,47.91615 48.705378,48.071464 C 48.629645,47.91745 48.529519,47.778257 48.409577,47.655182 C 48.280125,47.522657 48.141617,47.39989 47.986232,47.298083 C 47.822897,47.190379 47.653562,47.092051 47.472592,47.016585 C 47.300498,46.947302 47.123859,46.888721 46.936753,46.880241 C 46.745374,46.87031 46.553531,46.873113 46.366353,46.919966 C 46.181986,46.966261 46.002356,47.028415 45.840081,47.129727 C 45.676993,47.232579 45.522525,47.347853 45.381709,47.479973 C 45.237449,47.616782 45.098973,47.759947 44.979095,47.919029 C 44.860327,48.078037 44.749314,48.242813 44.648946,48.414113 C 44.552516,48.584525 44.459511,48.756902 44.376296,48.934228 C 44.300916,49.102804 44.233888,49.274835 44.181905,49.452216 C 44.136389,49.613596 44.095244,49.776478 44.069508,49.942341 C 44.032499,50.189714 44.01105,50.835137 44.034375,49.764075 C 44.033855,49.870266 44.036585,49.976186 44.046338,50.082013 C 44.051552,50.149388 44.056973,50.216787 44.065763,50.283808 C 44.10613,50.591591 44.026187,51.21117 43.977123,50.904654 z"
         id="path3459"
         style="opacity:1;fill:#debc85;fill-opacity:1;fill-rule:nonzero;stroke:none;stroke-width:1.5;stroke-linecap:round;stroke-linejoin:round;stroke-miterlimit:4;stroke-dasharray:none;stroke-dashoffset:0;stroke-opacity:1" />
    </g>
    <g
       id="g4525">
      <path
         transform="matrix(1.0381325,0,0,1.0228795,-4.1541353,5.5825847)"
         d="M 59.411322,11.350944 A 10.143396,10.143396 0 1 1 39.124529,11.350944 A 10.143396,10.143396 0 1 1 59.411322,11.350944 z"
         sodipodi:ry="10.143396"
         sodipodi:rx="10.143396"
         sodipodi:cy="11.350944"
         sodipodi:cx="49.267925"
         id="path4736"
         style="opacity:1;fill:#4d2600;fill-opacity:1;fill-rule:nonzero;stroke:none;stroke-width:1.5;stroke-linecap:round;stroke-linejoin:round;stroke-miterlimit:4;stroke-dasharray:none;stroke-dashoffset:0;stroke-opacity:1"
         sodipodi:type="arc" />
      <path
         transform="translate(-2.3527876,5.9196467)"
         d="M 59.411322,11.350944 A 10.143396,10.143396 0 1 1 39.124529,11.350944 A 10.143396,10.143396 0 1 1 59.411322,11.350944 z"
         sodipodi:ry="10.143396"
         sodipodi:rx="10.143396"
         sodipodi:cy="11.350944"
         sodipodi:cx="49.267925"
         id="path3206"
         style="opacity:1;fill:url(#linearGradient3256);fill-opacity:1;fill-rule:nonzero;stroke:none;stroke-width:1.5;stroke-linecap:round;stroke-linejoin:round;stroke-miterlimit:4;stroke-dasharray:none;stroke-dashoffset:0;stroke-opacity:1"
         sodipodi:type="arc" />
      <path
         transform="matrix(0.9678271,0,0,0.9911368,1.6994812,0.1118743)"
         id="path3241"
         d="M 55.854632,12.622265 C 56.127142,13.538933 56.292132,14.52374 56.292132,15.528515 C 56.292131,21.12767 51.735037,25.653515 46.135882,25.653515 C 42.061498,25.653515 38.561081,23.246514 36.948382,19.778515 C 38.194445,23.970024 42.072751,27.028516 46.667132,27.028515 C 52.266287,27.028515 56.792132,22.47142 56.792132,16.872265 C 56.792132,15.347495 56.458157,13.920105 55.854632,12.622265 z"
         style="opacity:1;fill:#c75b00;fill-opacity:1;fill-rule:nonzero;stroke:none;stroke-width:1.50000000000000000;stroke-linecap:round;stroke-linejoin:round;stroke-miterlimit:4;stroke-dasharray:none;stroke-dashoffset:0;stroke-opacity:1;filter:url(#filter3720)" />
      <path
         sodipodi:type="arc"
         style="opacity:1;fill:url(#radialGradient3239);fill-opacity:1;fill-rule:nonzero;stroke:none;stroke-width:1.5;stroke-linecap:round;stroke-linejoin:round;stroke-miterlimit:4;stroke-dasharray:none;stroke-dashoffset:0;stroke-opacity:1"
         id="path3223"
         sodipodi:cx="49.267925"
         sodipodi:cy="11.350944"
         sodipodi:rx="10.143396"
         sodipodi:ry="10.143396"
         d="M 59.411322,11.350944 A 10.143396,10.143396 0 1 1 39.124529,11.350944 A 10.143396,10.143396 0 1 1 59.411322,11.350944 z"
         transform="translate(-2.3527876,5.9196467)" />
      <path
         d="M 47.575587,8.2508229 C 47.66174,8.2251508 47.75041,8.2084246 47.838922,8.1920589 C 47.972742,8.1687665 48.10777,8.1520591 48.242904,8.137389 C 48.413363,8.1220652 48.583105,8.1016719 48.752848,8.0805318 C 48.937398,8.0553901 49.122857,8.0386624 49.309233,8.0344459 C 49.492468,8.0303082 49.67482,8.0458445 49.856138,8.0691635 C 50.030137,8.0909 50.198342,8.1383286 50.362386,8.1961787 C 50.490747,8.2409784 50.61247,8.2992017 50.728443,8.3676647 C 50.811501,8.4190431 50.885454,8.4811019 50.946418,8.5552244 C 51.127281,8.8025152 51.018157,9.1075319 51.014617,9.4050058 C 50.993381,9.4770881 50.942095,9.5308113 50.882093,9.5764724 C 50.829862,9.6156787 50.769631,9.6347727 50.704821,9.6442534 C 50.367341,9.6936213 50.359312,9.0617561 50.692052,8.9889276 L 50.692052,8.9889276 C 50.744773,8.9773885 50.791805,8.9578045 50.831254,8.9213647 C 50.877521,8.8755391 50.910495,8.8244487 50.916418,8.7595731 C 50.925057,9.9507158 50.988276,9.411646 50.880885,9.2064315 C 50.830116,9.1308798 50.766849,9.0659334 50.688862,9.0146105 C 50.579145,8.9423658 50.461884,8.8820754 50.337833,8.8348041 C 50.179343,8.7755095 50.016635,8.7264422 49.847154,8.7049762 C 49.669225,8.6822005 49.490502,8.6651041 49.310617,8.6698338 C 49.126659,8.6728969 48.943682,8.6899903 48.761819,8.7165351 C 48.591908,8.7389008 48.421763,8.7589434 48.251418,8.7780505 C 48.118062,8.7957583 47.984611,8.8137803 47.852974,8.8410931 C 47.766142,8.859488 47.679574,8.8794266 47.596292,8.9096457 C 47.275516,9.0260388 47.247952,8.3484533 47.575587,8.2508229 z"
         id="path3506"
         style="opacity:0.49779741000000000;fill:#bf5e00;fill-opacity:1;fill-rule:nonzero;stroke:none;stroke-width:1.50000000000000000;stroke-linecap:round;stroke-linejoin:round;stroke-miterlimit:4;stroke-dasharray:none;stroke-dashoffset:0;stroke-opacity:1;filter:url(#filter3612)" />
      <path
         sodipodi:nodetypes="cscsc"
         id="path3298"
         d="M 37.259789,19.259912 C 37.944875,22.399403 42.002383,24.797519 46.90798,24.797519 C 51.792254,24.797519 55.844868,22.425593 56.556171,19.306059 C 55.24282,20.627535 51.411827,21.613395 46.90798,21.613395 C 42.367149,21.613395 38.542297,20.598239 37.259789,19.259912 z"
         style="opacity:1;fill:url(#linearGradient3315);fill-opacity:1;fill-rule:nonzero;stroke:none;stroke-width:1.50000000000000000;stroke-linecap:round;stroke-linejoin:round;stroke-miterlimit:4;stroke-dasharray:none;stroke-dashoffset:0;stroke-opacity:1" />
      <path
         sodipodi:type="arc"
         style="opacity:1;fill:#eeeeec;fill-opacity:1;fill-rule:nonzero;stroke:none;stroke-width:1.50000000000000000;stroke-linecap:round;stroke-linejoin:round;stroke-miterlimit:4;stroke-dasharray:none;stroke-dashoffset:0;stroke-opacity:1"
         id="path3319"
         sodipodi:cx="46.254318"
         sodipodi:cy="12.255174"
         sodipodi:rx="1.2449403"
         sodipodi:ry="2.8410175"
         d="M 47.499259,12.255174 A 1.2449403,2.8410175 0 1 1 45.009378,12.255174 A 1.2449403,2.8410175 0 1 1 47.499259,12.255174 z"
         transform="matrix(1.2614133,0.2774844,0.2774844,-1.2614133,-10.443702,18.18241)" />
      <path
         transform="matrix(1.2614133,-0.2774844,0.2774844,1.2614133,-19.226718,12.934436)"
         d="M 47.499259,12.255174 A 1.2449403,2.8410175 0 1 1 45.009378,12.255174 A 1.2449403,2.8410175 0 1 1 47.499259,12.255174 z"
         sodipodi:ry="2.8410175"
         sodipodi:rx="1.2449403"
         sodipodi:cy="12.255174"
         sodipodi:cx="46.254318"
         id="path3317"
         style="fill:#eeeeec;fill-opacity:1;fill-rule:nonzero;stroke:none;stroke-width:1.50000000000000000;stroke-linecap:round;stroke-linejoin:round;stroke-miterlimit:4;stroke-dasharray:none;stroke-dashoffset:0;stroke-opacity:1"
         sodipodi:type="arc" />
      <path
         sodipodi:type="arc"
         style="fill:#2e3436;fill-opacity:1;fill-rule:nonzero;stroke:none;stroke-width:1.50000000000000000;stroke-linecap:round;stroke-linejoin:round;stroke-miterlimit:4;stroke-dasharray:none;stroke-dashoffset:0;stroke-opacity:1"
         id="path3337"
         sodipodi:cx="46.254318"
         sodipodi:cy="12.255174"
         sodipodi:rx="1.2449403"
         sodipodi:ry="2.8410175"
         d="M 47.499259,12.255174 A 1.2449403,2.8410175 0 1 1 45.009378,12.255174 A 1.2449403,2.8410175 0 1 1 47.499259,12.255174 z"
         transform="matrix(0.8948055,-0.2061411,0.1968384,0.9370946,-1.0258228,14.343279)" />
      <path
         id="path3347"
         d="M 41.328107,11.137597 C 40.126697,11.328286 39.642223,13.096896 40.245337,15.075098 C 40.446374,15.734498 40.760737,16.32417 41.111553,16.825098 C 40.870667,16.413887 40.65598,15.944648 40.505201,15.450098 C 39.902087,13.471896 40.386561,11.703286 41.587971,11.512597 C 42.338855,11.393416 43.201544,11.933878 43.883445,12.825097 C 43.168066,11.708942 42.179107,11.002526 41.328107,11.137597 z"
         style="fill:#4d2600;fill-opacity:1;fill-rule:nonzero;stroke:none;stroke-width:1.50000000000000000;stroke-linecap:round;stroke-linejoin:round;stroke-miterlimit:4;stroke-dasharray:none;stroke-dashoffset:0;stroke-opacity:1" />
      <path
         id="path3356"
         d="M 42.246146,13.364406 C 41.924832,13.442529 41.733779,13.901701 41.653951,14.520657 C 41.761644,14.107158 41.935943,13.831679 42.186927,13.770656 C 42.76957,13.628995 43.493368,14.707316 43.785855,16.176907 C 43.917042,16.836049 43.909999,17.423508 43.845075,17.926907 C 43.983365,17.381247 44.009957,16.599103 43.845075,15.770657 C 43.552587,14.301066 42.82879,13.222744 42.246146,13.364406 z"
         style="fill:#00c4cc;fill-opacity:1;fill-rule:nonzero;stroke:none;stroke-width:1.50000000000000000;stroke-linecap:round;stroke-linejoin:round;stroke-miterlimit:4;stroke-dasharray:none;stroke-dashoffset:0;stroke-opacity:1" />
      <path
         transform="matrix(-0.8948055,-0.2061411,-0.1968384,0.9370946,94.865332,14.343279)"
         d="M 47.499259,12.255174 A 1.2449403,2.8410175 0 1 1 45.009378,12.255174 A 1.2449403,2.8410175 0 1 1 47.499259,12.255174 z"
         sodipodi:ry="2.8410175"
         sodipodi:rx="1.2449403"
         sodipodi:cy="12.255174"
         sodipodi:cx="46.254318"
         id="path3375"
         style="fill:#2e3436;fill-opacity:1;fill-rule:nonzero;stroke:none;stroke-width:1.50000000000000000;stroke-linecap:round;stroke-linejoin:round;stroke-miterlimit:4;stroke-dasharray:none;stroke-dashoffset:0;stroke-opacity:1"
         sodipodi:type="arc" />
      <path
         style="fill:#4d2600;fill-opacity:1;fill-rule:nonzero;stroke:none;stroke-width:1.50000000000000000;stroke-linecap:round;stroke-linejoin:round;stroke-miterlimit:4;stroke-dasharray:none;stroke-dashoffset:0;stroke-opacity:1"
         d="M 52.5355,11.20144 C 53.65819,11.39213 54.11092,13.160739 53.547324,15.138941 C 53.359459,15.798341 53.065694,16.388013 52.737864,16.888941 C 52.962967,16.47773 53.163587,16.008491 53.304486,15.513941 C 53.868083,13.535739 53.415352,11.76713 52.292661,11.57644 C 51.590978,11.457259 50.784815,11.997721 50.147594,12.88894 C 50.816099,11.772785 51.740259,11.066369 52.5355,11.20144 z"
         id="path3377" />
      <path
         style="fill:#00c4cc;fill-opacity:1;fill-rule:nonzero;stroke:none;stroke-width:1.50000000000000000;stroke-linecap:round;stroke-linejoin:round;stroke-miterlimit:4;stroke-dasharray:none;stroke-dashoffset:0;stroke-opacity:1"
         d="M 51.593364,13.364406 C 51.914678,13.442529 52.105731,13.901701 52.185559,14.520657 C 52.077866,14.107158 51.903567,13.831679 51.652583,13.770656 C 51.06994,13.628995 50.346142,14.707316 50.053655,16.176907 C 49.922468,16.836049 49.929511,17.423508 49.994435,17.926907 C 49.856145,17.381247 49.829553,16.599103 49.994435,15.770657 C 50.286923,14.301066 51.01072,13.222744 51.593364,13.364406 z"
         id="path3379" />
      <path
         d="M 47.220623,8.856098 C 47.157109,8.8206835 47.105788,8.7692552 47.056439,8.7167628 C 46.982393,8.6383126 46.91539,8.5535753 46.850068,8.4678406 C 46.759076,8.3447167 46.674448,8.2171185 46.594911,8.0863515 C 46.494584,7.9194752 46.421854,7.7389651 46.354161,7.5570589 C 46.275232,7.3359129 46.210516,7.1100991 46.148455,6.8837573 C 46.082959,6.6429169 46.025592,6.4000321 45.97616,6.1554167 C 45.925729,5.9108279 45.889903,5.6638113 45.862745,5.4156731 C 45.827213,4.9534261 45.811418,4.4854818 45.870627,4.024771 C 45.902487,3.7832712 45.969603,3.5500327 46.060423,3.3246584 C 46.154477,3.095904 46.286449,2.8860924 46.426188,2.6830456 C 46.567181,2.4828486 46.725949,2.296334 46.905401,2.1298644 C 47.103376,1.9552616 47.336087,1.8296733 47.568719,1.708375 C 47.804702,1.5808794 48.049657,1.4845024 48.311733,1.4292207 C 48.584637,1.3798055 48.862516,1.3681261 49.139274,1.365314 C 49.392848,1.3638737 49.644719,1.3947576 49.894289,1.4368089 C 50.098074,1.4740547 50.29664,1.5342802 50.48987,1.6082234 C 50.639144,1.6629965 50.773095,1.7441939 50.8884,1.8530791 C 50.979314,1.946178 51.017307,2.0608717 51.030623,2.1872672 C 51.04814,2.5661817 51.094372,2.8868578 50.942264,3.2154443 C 50.886053,3.334278 50.795205,3.428338 50.700651,3.5172741 C 50.593448,3.6153189 50.472562,3.6957573 50.346626,3.7673536 C 50.224084,3.8389253 50.090337,3.8795395 49.951325,3.9028539 C 49.821946,3.9212593 49.691703,3.9087561 49.563895,3.885832 C 49.444767,3.8608717 49.332079,3.8160833 49.229154,3.7515678 C 49.14569,3.6969616 49.085067,3.6195066 49.036534,3.5337539 C 48.864752,3.2302338 48.969372,2.5159403 49.113779,2.8333994 L 49.113779,2.8333994 C 49.151524,2.9163773 49.197806,2.9948502 49.271066,3.0517626 C 49.361981,3.1195341 49.46617,3.1630791 49.576727,3.1883586 C 49.696129,3.2114319 49.818411,3.223151 49.939607,3.2068463 C 50.07063,3.1842651 50.19582,3.1429163 50.310353,3.0739009 C 50.431434,3.0031992 50.54675,2.9228111 50.646823,2.8239198 C 50.734256,2.7347078 50.814579,2.639392 50.86052,2.5214164 C 50.963045,2.2505674 50.939722,1.6972348 50.924694,2.8786049 C 50.9253,2.758372 50.908831,2.6441992 50.832845,2.5460888 C 50.731787,2.4319294 50.604843,2.3511449 50.463796,2.2935741 C 50.276167,2.2152578 50.08191,2.1534137 49.88253,2.1126361 C 49.637264,2.0677175 49.38966,2.0337622 49.13974,2.033763 C 48.867494,2.0347819 48.594116,2.0469697 48.326064,2.0980137 C 48.070937,2.1552795 47.831838,2.254185 47.600948,2.3769897 C 47.372546,2.4966796 47.146827,2.6252469 46.956623,2.8017757 C 46.784165,2.9703766 46.627807,3.1542148 46.491725,3.3536561 C 46.355964,3.5562472 46.228621,3.7656237 46.141247,3.9943529 C 46.057308,4.2199596 45.99533,4.4524581 45.968406,4.6922878 C 45.943166,4.9324596 45.950487,5.4191526 45.946654,4.3861265 C 45.945345,4.0333249 45.932428,5.0953546 45.961099,4.7494002 C 45.98632,4.9973911 46.018068,5.2446442 46.068375,5.4889888 C 46.115861,5.7329831 46.170915,5.9752967 46.23619,6.2152111 C 46.296818,6.4393008 46.360052,6.6628619 46.436769,6.8820749 C 46.501552,7.0597073 46.570482,7.2362947 46.665809,7.4002499 C 46.742208,7.5289704 46.824523,7.65399 46.914585,7.7736268 C 46.976256,7.8570246 47.043759,7.9360719 47.113077,8.0132021 C 47.158566,8.0591351 47.19994,8.1106558 47.256793,8.1434219 C 47.562818,8.3197927 47.529117,9.028112 47.220623,8.856098 z"
         id="path3442"
         style="opacity:1;fill:#2e3436;fill-opacity:1;fill-rule:nonzero;stroke:none;stroke-width:1.5;stroke-linecap:round;stroke-linejoin:round;stroke-miterlimit:4;stroke-dasharray:none;stroke-dashoffset:0;stroke-opacity:1" />
      <path
         id="path3502"
         d="M 50.124922,19.936918 C 49.002232,19.746228 48.549502,17.977619 49.113098,15.999417 C 49.300963,15.340017 49.594728,14.750345 49.922558,14.249417 C 49.697455,14.660628 49.496835,15.129867 49.355936,15.624417 C 48.792339,17.602619 49.24507,19.371228 50.367761,19.561918 C 51.069444,19.681099 51.875607,19.140637 52.512828,18.249418 C 51.844323,19.365573 50.920163,20.071989 50.124922,19.936918 z"
         style="fill:#bf5e00;fill-opacity:1;fill-rule:nonzero;stroke:none;stroke-width:1.50000000000000000;stroke-linecap:round;stroke-linejoin:round;stroke-miterlimit:4;stroke-dasharray:none;stroke-dashoffset:0;stroke-opacity:1" />
      <path
         style="fill:#bf5e00;fill-opacity:1;fill-rule:nonzero;stroke:none;stroke-width:1.50000000000000000;stroke-linecap:round;stroke-linejoin:round;stroke-miterlimit:4;stroke-dasharray:none;stroke-dashoffset:0;stroke-opacity:1"
         d="M 43.690491,19.873075 C 44.891901,19.682386 45.376375,17.913776 44.773261,15.935574 C 44.572224,15.276174 44.257861,14.686502 43.907045,14.185574 C 44.147931,14.596785 44.362618,15.066024 44.513397,15.560574 C 45.116511,17.538776 44.632037,19.307386 43.430627,19.498075 C 42.679743,19.617256 41.817054,19.076794 41.135153,18.185575 C 41.850532,19.30173 42.839491,20.008146 43.690491,19.873075 z"
         id="path3504" />
    </g>
    <g
       id="g4543"
       transform="translate(-0.2754719,0.3962264)">
      <path
         style="fill:#803f00;fill-opacity:1;fill-rule:evenodd;stroke:none;stroke-width:1px;stroke-linecap:butt;stroke-linejoin:miter;stroke-opacity:1;filter:url(#filter4732)"
         d="M 43.78125,27.40625 C 42.163899,27.473657 42.262268,29.148772 42.5625,30.625 C 42.870273,31.121755 43.025535,31.794039 43.53125,32.09375 C 44.170751,32.289437 44.504216,31.478571 44.5625,30.90625 C 44.884183,29.940249 45.556777,29.102542 46.40625,28.6875 C 46.405138,28.697939 46.407467,28.708117 46.40625,28.71875 C 46.397214,28.824439 46.37889,28.925242 46.375,29.03125 C 46.363889,29.562218 46.361075,30.094078 46.375,30.625 C 46.377581,30.741494 46.39271,30.884302 46.40625,31 C 46.419413,31.128626 46.449026,31.247277 46.46875,31.375 C 46.488974,31.506327 46.514251,31.649472 46.53125,31.78125 C 46.548788,31.918303 46.547925,32.050101 46.5625,32.1875 C 46.578028,32.334467 46.581098,32.477764 46.59375,32.625 C 46.599543,32.721381 46.61996,32.809827 46.625,32.90625 C 46.618974,33.011709 46.601122,33.113368 46.59375,33.21875 C 46.582412,33.37835 46.572489,33.527812 46.5625,33.6875 C 46.552916,33.847442 46.537845,33.99615 46.53125,34.15625 C 46.519197,34.723217 46.505045,35.308413 46.53125,35.875 C 46.537839,36.033315 46.544333,36.186374 46.5625,36.34375 C 46.578913,36.49723 46.604704,36.659508 46.625,36.8125 C 46.644273,36.964731 46.666205,37.098037 46.6875,37.25 C 46.708815,37.401231 46.731548,37.567148 46.75,37.71875 C 46.768606,37.872363 46.796575,38.03359 46.8125,38.1875 C 46.814856,38.209388 46.81034,38.228091 46.8125,38.25 C 46.811345,38.269659 46.813741,38.292846 46.8125,38.3125 C 46.802543,38.461859 46.790345,38.600587 46.78125,38.75 C 46.743756,39.365981 46.9322,40.584788 46.96875,39.96875 C 46.977573,39.820046 46.989767,39.679866 47,39.53125 C 47.010184,39.382516 47.030034,39.242909 47.03125,39.09375 C 47.040793,38.532717 47.061627,37.966702 47.03125,37.40625 C 47.020363,37.25234 46.986171,37.090831 46.96875,36.9375 C 46.952201,36.782908 46.956827,36.623022 46.9375,36.46875 C 46.918365,36.316695 46.896275,36.183021 46.875,36.03125 C 46.854491,35.879395 46.83322,35.71433 46.8125,35.5625 C 46.792103,35.410611 46.764981,35.277549 46.75,35.125 C 46.743178,35.052423 46.755053,34.978969 46.75,34.90625 C 46.759657,34.747035 46.770052,34.596615 46.78125,34.4375 C 46.792331,34.280355 46.805521,34.126148 46.8125,33.96875 C 46.820757,33.817999 46.80863,33.650951 46.8125,33.5 C 46.813509,32.942747 46.838385,32.401522 46.8125,31.84375 C 46.804677,31.69419 46.794848,31.524171 46.78125,31.375 C 46.768019,31.225481 46.76594,31.086757 46.75,30.9375 C 46.734914,30.79794 46.706106,30.670391 46.6875,30.53125 C 46.669714,30.398082 46.645471,30.257784 46.625,30.125 C 46.613682,30.049565 46.602702,29.98199 46.59375,29.90625 C 46.600074,29.844174 46.617061,29.780642 46.625,29.71875 C 46.635886,29.641639 46.641931,29.576561 46.65625,29.5 C 46.668113,29.437558 46.671207,29.373963 46.6875,29.3125 C 46.700724,29.264327 46.737977,29.204655 46.75,29.15625 C 46.758898,29.125278 46.773731,29.093501 46.78125,29.0625 C 46.819886,28.903217 46.852579,28.695918 46.875,28.5 C 46.930067,28.494797 46.979506,28.520578 47.03125,28.53125 C 47.023003,28.803629 47.075091,29.08086 47.21875,29.25 C 47.239495,29.274425 47.269627,29.282541 47.28125,29.3125 C 47.300351,29.360082 47.323942,29.421312 47.34375,29.46875 C 47.374882,29.530043 47.408429,29.593955 47.4375,29.65625 C 47.467784,29.729441 47.502948,29.801008 47.53125,29.875 C 47.568391,29.959664 47.596379,30.037171 47.625,30.125 C 47.657228,30.222186 47.65785,30.339573 47.6875,30.4375 C 47.718789,30.541574 47.756117,30.644291 47.78125,30.75 C 47.805356,30.873408 47.82594,31.000559 47.84375,31.125 C 47.845037,31.13558 47.842521,31.145665 47.84375,31.15625 C 47.842935,31.165978 47.844585,31.177774 47.84375,31.1875 C 47.832202,31.338576 47.802892,31.475078 47.78125,31.625 C 47.757823,31.774932 47.744498,31.91295 47.71875,32.0625 C 47.692459,32.210031 47.6537,32.38417 47.625,32.53125 C 47.5952,32.679289 47.562516,32.821014 47.53125,32.96875 C 47.498124,33.130443 47.471881,33.276067 47.4375,33.4375 C 47.401688,33.598992 47.378869,33.77585 47.34375,33.9375 C 47.306982,34.105327 47.277753,34.267973 47.25,34.4375 C 47.236307,34.522319 47.200027,34.602503 47.1875,34.6875 C 47.098728,35.289818 47.289599,36.509056 47.375,35.90625 C 47.387032,35.821314 47.393292,35.741049 47.40625,35.65625 C 47.432054,35.488375 47.463063,35.322121 47.5,35.15625 C 47.534502,34.99439 47.555282,34.817216 47.59375,34.65625 C 47.628139,34.497737 47.685711,34.346297 47.71875,34.1875 C 47.749875,34.04106 47.781999,33.896579 47.8125,33.75 C 47.841136,33.60218 47.849084,33.460833 47.875,33.3125 C 47.902975,33.16238 47.940923,32.993907 47.96875,32.84375 C 47.991794,32.695297 48.018784,32.556065 48.03125,32.40625 C 48.04522,32.258635 48.05266,32.116705 48.0625,31.96875 C 48.089393,31.411807 48.087998,30.838265 48.0625,30.28125 C 48.05225,30.140279 48.052302,30.014819 48.03125,29.875 C 48.01183,29.743847 47.969266,29.597614 47.9375,29.46875 C 47.926625,29.425075 47.913027,29.385249 47.90625,29.34375 C 48.493311,30.202174 49.106661,31.082429 49.40625,32.125 C 49.146861,32.730182 49.646036,33.270147 49.860731,32.622877 C 50.381576,31.890986 50.593345,30.797809 50.298231,29.90625 C 50.712701,27.088973 50.548892,28.696437 48.25,27.875 C 47.962475,27.921372 47.694436,27.93552 47.40625,27.9375 C 47.397241,27.925978 47.378557,27.920183 47.375,27.90625 C 47.354329,27.825294 47.339038,27.770528 47.3125,27.75 C 47.289279,27.732038 47.274876,27.730126 47.25,27.75 C 47.21735,27.776085 47.186384,27.862247 47.15625,27.9375 C 47.073448,27.934912 46.988984,27.911767 46.90625,27.90625 C 46.893541,27.694191 46.8438,27.545633 46.75,27.59375 C 46.716209,27.611084 46.6723,27.681446 46.625,27.75 C 46.602569,27.782511 46.608568,27.80722 46.59375,27.84375 C 46.589337,27.856019 46.567738,27.862452 46.5625,27.875 C 45.89437,27.800861 45.242684,27.677496 44.59375,27.5 C 44.287937,27.438965 44.0123,27.39662 43.78125,27.40625 z"
         id="path4625"
         sodipodi:nodetypes="ccccssssssssssssssssssssssssssssssssssssssssssssssccsssssssssssssssssssssssssssssssscccccssssscsssscc" />
      <path
         style="fill:#555753;fill-opacity:1;fill-rule:evenodd;stroke:none;stroke-width:1px;stroke-linecap:butt;stroke-linejoin:miter;stroke-opacity:1"
         d="M 41.96875,26.243632 C 41.324665,26.295022 40.955397,26.902261 40.743083,27.427871 C 40.266681,27.991777 41.382122,28.21916 41.453716,28.434323 C 41.086485,28.930797 41.441461,29.473137 41.836524,29.810277 C 42.177471,30.28687 42.356635,30.928851 42.916861,31.216397 C 43.625296,31.404141 43.976757,30.633916 44.041323,30.084823 C 44.444497,29.036266 45.341673,28.127261 46.461776,27.807545 C 46.974279,27.652719 47.364022,28.103362 47.66122,28.436988 C 48.344478,29.307544 49.081221,30.176952 49.432208,31.234788 C 49.144858,31.815407 50.212808,32.278025 50.450646,31.657026 C 51.027634,30.95484 51.273909,29.969466 50.946984,29.114093 C 51.334441,29.111632 51.392595,29.811339 51.818525,29.797406 C 52.405712,29.632659 52.289278,28.95627 52.346757,28.49824 C 52.40353,28.094053 52.498643,27.657196 52.264443,27.284062 C 52.051426,26.837629 51.531971,26.659145 51.054697,26.658706 C 50.055462,26.630337 49.13916,27.11916 48.147163,27.165851 C 46.779196,27.356924 45.396309,27.112712 44.068688,26.79822 C 43.361982,26.635365 42.695285,26.320705 41.96875,26.243632 z"
         id="path4612" />
      <path
         sodipodi:nodetypes="csssssscccccsscssc"
         id="path3732"
         d="M 41.930011,26.305948 C 41.840078,26.299689 41.795318,26.324219 41.749124,26.343294 C 41.379577,26.495889 40.391906,28.02709 41.278819,27.874495 C 42.165733,27.7219 42.842222,27.647206 42.472671,27.799803 C 42.103124,27.952398 41.23487,28.840684 41.604415,29.06958 C 41.973963,29.298473 42.537251,30.594361 42.906799,30.899552 C 43.276346,31.204743 43.591059,30.840909 43.738878,30.077932 C 43.886697,29.314953 45.373495,27.390599 46.851684,27.390598 L 44.100651,26.940836 C 44.100651,26.940836 42.559541,26.349759 41.930011,26.305948 z M 49.56343,27.015529 C 48.708378,27.256448 47.957574,27.299793 46.910045,27.342015 C 47.72305,27.723503 49.782049,30.544173 49.708139,31.459748 C 49.634229,32.375324 50.755726,31.146101 50.829637,30.077932 C 50.903546,29.00976 50.250799,28.324257 50.250799,28.324257 C 50.250801,28.324257 51.476164,28.719016 51.697893,29.405697 C 51.919621,30.092378 52.133409,28.549615 52.168198,27.72511 C 52.213296,26.656295 50.763282,26.542859 49.56343,27.015529 z"
         style="fill:#eeeeec;fill-rule:evenodd;stroke:none;stroke-width:1px;stroke-linecap:butt;stroke-linejoin:miter;stroke-opacity:1" />
      <path
         style="fill:url(#linearGradient3755);fill-opacity:1;fill-rule:evenodd;stroke:none;stroke-width:1px;stroke-linecap:butt;stroke-linejoin:miter;stroke-opacity:1"
         d="M 41.930011,26.305948 C 41.840078,26.299689 41.795318,26.324219 41.749124,26.343294 C 41.379577,26.495889 40.391906,28.02709 41.278819,27.874495 C 42.165733,27.7219 42.842222,27.647206 42.472671,27.799803 C 42.103124,27.952398 41.23487,28.840684 41.604415,29.06958 C 41.973963,29.298473 42.537251,30.594361 42.906799,30.899552 C 43.276346,31.204743 43.591059,30.840909 43.738878,30.077932 C 43.886697,29.314953 45.373495,27.390599 46.851684,27.390598 L 44.100651,26.940836 C 44.100651,26.940836 42.559541,26.349759 41.930011,26.305948 z M 49.56343,27.015529 C 48.708378,27.256448 47.957574,27.299793 46.910045,27.342015 C 47.72305,27.723503 49.782049,30.544173 49.708139,31.459748 C 49.634229,32.375324 50.755726,31.146101 50.829637,30.077932 C 50.903546,29.00976 50.250799,28.324257 50.250799,28.324257 C 50.250801,28.324257 51.476164,28.719016 51.697893,29.405697 C 51.919621,30.092378 52.133409,28.549615 52.168198,27.72511 C 52.213296,26.656295 50.763282,26.542859 49.56343,27.015529 z"
         id="path3747"
         sodipodi:nodetypes="csssssscccccsscssc" />
      <path
         sodipodi:nodetypes="csssssscccccsscssc"
         id="path3757"
         d="M 41.930011,26.305948 C 41.840078,26.299689 41.795318,26.324219 41.749124,26.343294 C 41.379577,26.495889 40.391906,28.02709 41.278819,27.874495 C 42.165733,27.7219 42.842222,27.647206 42.472671,27.799803 C 42.103124,27.952398 41.23487,28.840684 41.604415,29.06958 C 41.973963,29.298473 42.537251,30.594361 42.906799,30.899552 C 43.276346,31.204743 43.591059,30.840909 43.738878,30.077932 C 43.886697,29.314953 45.373495,27.390599 46.851684,27.390598 L 44.100651,26.940836 C 44.100651,26.940836 42.559541,26.349759 41.930011,26.305948 z M 49.56343,27.015529 C 48.708378,27.256448 47.957574,27.299793 46.910045,27.342015 C 47.72305,27.723503 49.782049,30.544173 49.708139,31.459748 C 49.634229,32.375324 50.755726,31.146101 50.829637,30.077932 C 50.903546,29.00976 50.250799,28.324257 50.250799,28.324257 C 50.250801,28.324257 51.476164,28.719016 51.697893,29.405697 C 51.919621,30.092378 52.133409,28.549615 52.168198,27.72511 C 52.213296,26.656295 50.763282,26.542859 49.56343,27.015529 z"
         style="fill:url(#radialGradient3761);fill-opacity:1;fill-rule:evenodd;stroke:none;stroke-width:1px;stroke-linecap:butt;stroke-linejoin:miter;stroke-opacity:1" />
      <path
         d="M 48.91398,27.292707 C 48.938659,27.295427 48.961026,27.306864 48.983447,27.31672 C 49.021366,27.333304 49.059499,27.349416 49.097708,27.365324 C 49.143974,27.385035 49.189667,27.406028 49.2361,27.425344 C 49.288272,27.446788 49.339356,27.470662 49.390107,27.495239 C 49.446165,27.52309 49.499929,27.555263 49.554361,27.586108 C 49.613626,27.62001 49.671031,27.657059 49.727967,27.694705 C 49.786437,27.733408 49.841656,27.776424 49.895889,27.820767 C 49.952235,27.866417 50.004065,27.9172 50.054207,27.969483 C 50.106757,28.025826 50.158235,28.083165 50.20744,28.142456 C 50.258944,28.202608 50.306861,28.265577 50.352256,28.330422 C 50.399045,28.397839 50.440066,28.468931 50.479176,28.540992 C 50.517653,28.61281 50.5504,28.687457 50.580419,28.763137 C 50.610051,28.839348 50.635577,28.91704 50.658407,28.99553 C 50.681527,29.074282 50.698807,29.154504 50.71495,29.234917 C 50.730336,29.315449 50.741801,29.396658 50.751043,29.478102 C 50.760611,29.561917 50.764859,29.646204 50.767288,29.730488 C 50.770494,29.891335 50.770786,30.0523 50.763885,30.213039 C 50.759543,30.303699 50.748875,30.393813 50.735909,30.483591 C 50.721266,30.57566 50.702832,30.667024 50.684695,30.758445 C 50.671584,30.818898 50.678458,30.788731 50.664071,30.848945 C 50.638408,30.956353 50.609564,30.73548 50.634247,30.627843 L 50.634247,30.627843 C 50.648044,30.567676 50.64142,30.597783 50.654123,30.537521 C 50.672209,30.446246 50.690304,30.354947 50.704086,30.262896 C 50.716226,30.172846 50.726181,30.082502 50.729738,29.991647 C 50.731068,29.956656 50.731913,29.938709 50.732598,29.903748 C 50.732882,29.889267 50.733037,29.845816 50.733125,29.8603 C 50.735244,30.209837 50.733642,30.029285 50.732761,29.952256 C 50.730763,29.868367 50.727307,29.78444 50.718245,29.700972 C 50.709562,29.6196 50.698612,29.538515 50.684099,29.457955 C 50.668311,29.377767 50.651999,29.297605 50.629371,29.219006 C 50.607311,29.14066 50.582631,29.063108 50.553457,28.987083 C 50.524309,28.911382 50.492423,28.836769 50.454994,28.764732 C 50.416648,28.693027 50.376437,28.622252 50.330541,28.555045 C 50.285924,28.490293 50.238914,28.427245 50.187534,28.367649 C 50.139108,28.308442 50.08808,28.251478 50.03585,28.195605 C 49.986712,28.143596 49.935561,28.093362 49.880318,28.047795 C 49.826555,28.003944 49.772563,27.960487 49.714614,27.922163 C 49.658329,27.884595 49.601256,27.848101 49.542707,27.814152 C 49.48856,27.784174 49.435035,27.753005 49.379791,27.725064 C 49.329405,27.700965 49.278951,27.677024 49.227168,27.656022 C 49.180652,27.637448 49.134908,27.617082 49.088734,27.597699 C 49.050518,27.582543 49.012677,27.566493 48.974368,27.551569 C 48.953848,27.543875 48.933626,27.533774 48.911601,27.531362 C 48.794169,27.5185 48.796557,27.279764 48.91398,27.292707 z"
         id="path4447"
         style="opacity:1;fill:#74796d;fill-opacity:1;fill-rule:nonzero;stroke:none;stroke-width:1.5;stroke-linecap:round;stroke-linejoin:round;stroke-miterlimit:4;stroke-dasharray:none;stroke-dashoffset:0;stroke-opacity:1;filter:url(#filter4463)" />
      <path
         d="M 44.492414,27.411146 C 44.46887,27.414493 44.445134,27.416197 44.421427,27.417888 C 44.386872,27.42041 44.352546,27.425545 44.318116,27.429439 C 44.273521,27.43329 44.229189,27.439058 44.184839,27.445017 C 44.13377,27.45224 44.082735,27.460337 44.032069,27.470037 C 43.975293,27.481041 43.918403,27.491277 43.861769,27.502988 C 43.79992,27.514995 43.73906,27.531418 43.677998,27.546802 C 43.612525,27.564213 43.547678,27.583756 43.482657,27.602747 C 43.414603,27.624365 43.346223,27.644949 43.278693,27.668173 C 43.208508,27.691987 43.139385,27.718861 43.071111,27.747671 C 43.00003,27.776522 42.931105,27.810265 42.861776,27.843011 C 42.788904,27.876495 42.716761,27.911578 42.645537,27.948437 C 42.573901,27.985131 42.503243,28.023746 42.433476,28.063876 C 42.364713,28.104428 42.299381,28.150275 42.23423,28.196288 C 42.169868,28.243544 42.106963,28.292799 42.044722,28.342812 C 41.983184,28.394024 41.923578,28.447482 41.866597,28.503716 C 41.808272,28.561813 41.752612,28.622596 41.698465,28.684591 C 41.661934,28.726567 41.628377,28.770943 41.595398,28.815717 C 41.529404,28.905313 41.507819,28.680987 41.57447,28.591879 L 41.57447,28.591879 C 41.60806,28.546971 41.642242,28.50248 41.679362,28.460394 C 41.734219,28.398303 41.790249,28.337157 41.849139,28.278852 C 41.906987,28.222662 41.967122,28.168852 42.029506,28.117729 C 42.092233,28.067711 42.155272,28.017997 42.220362,27.971072 C 42.285991,27.924702 42.352236,27.879082 42.42176,27.838664 C 42.491972,27.798691 42.562844,27.759851 42.63482,27.723135 C 42.706432,27.686478 42.778778,27.65128 42.851756,27.61742 C 42.921316,27.584121 42.990662,27.550243 43.062115,27.521121 C 43.130991,27.49245 43.200531,27.465328 43.271205,27.44138 C 43.339152,27.418191 43.407585,27.396478 43.476124,27.375109 C 43.541346,27.355672 43.606514,27.336057 43.67227,27.318471 C 43.733614,27.302492 43.794793,27.285696 43.857034,27.273457 C 43.913804,27.261439 43.970858,27.250901 44.027715,27.239308 C 44.078826,27.229575 44.130115,27.220545 44.181603,27.213055 C 44.226067,27.206546 44.270592,27.200744 44.315249,27.195721 C 44.349942,27.191088 44.38451,27.185329 44.419377,27.182157 C 44.442381,27.179782 44.465419,27.177327 44.488127,27.172838 C 44.603863,27.149956 44.609215,27.394543 44.492414,27.411146 z"
         id="path4449"
         style="opacity:1;fill:#ffffff;fill-opacity:1;fill-rule:nonzero;stroke:none;stroke-width:1.5;stroke-linecap:round;stroke-linejoin:round;stroke-miterlimit:4;stroke-dasharray:none;stroke-dashoffset:0;stroke-opacity:1;filter:url(#filter4459)" />
      <path
         d="M 46.281612,28.727563 C 46.247009,28.735477 46.218176,28.754952 46.190531,28.77646 C 46.139656,28.810576 46.095707,28.853846 46.053015,28.897477 C 45.991605,28.972084 45.946248,29.057937 45.903499,29.144107 C 45.840391,29.267899 45.788442,29.396939 45.737713,29.526167 C 45.687471,29.66514 45.642344,29.805903 45.605822,29.949098 C 45.566353,30.106366 45.531686,30.264698 45.506402,30.424865 C 45.47428,30.251014 45.498592,30.853848 45.499429,30.672168 C 45.508362,28.732685 45.462646,29.303854 45.521433,29.734369 C 45.550704,29.91918 45.594114,30.101304 45.640176,30.282525 C 45.700017,30.506033 45.79531,30.717615 45.888519,30.928677 C 45.987551,31.148912 46.084261,31.370012 46.172114,31.594959 C 46.283467,31.910187 46.381213,32.230022 46.485531,32.547632 C 46.610963,32.914649 46.739122,33.28022 46.833436,33.656658 C 46.974172,34.417069 46.946704,35.202851 46.906646,35.97153 C 46.87936,36.464746 46.78068,36.948107 46.642448,37.421053 C 46.484788,37.94583 46.215527,38.421555 45.932881,38.886891 C 45.882698,38.966564 45.832515,39.046237 45.782333,39.12591 C 45.539458,39.511512 45.446626,38.59542 45.689635,38.209903 L 45.689635,38.209903 C 45.739241,38.131207 45.788847,38.052511 45.838453,37.973814 C 46.119661,37.499017 46.373201,37.006554 46.518198,36.470948 C 46.645588,35.985784 46.739003,35.491964 46.755258,34.989151 C 46.769592,34.539157 46.767136,34.53051 46.76478,35.517749 C 46.764609,35.589506 46.764207,35.374208 46.761532,35.3025 C 46.754048,35.101846 46.732177,34.902074 46.692759,34.7051 C 46.606013,34.331785 46.484144,33.968975 46.353722,33.608766 C 46.248638,33.324386 46.142279,33.040449 46.032015,32.758035 C 45.945365,32.53574 45.852358,32.316025 45.752905,32.099134 C 45.662008,31.894891 45.566253,31.692508 45.484585,31.484362 C 45.42592,31.307001 45.38658,31.124417 45.350033,30.941349 C 45.243447,30.369867 45.257199,29.776108 45.334374,29.20139 C 45.365709,29.039395 45.401667,28.87823 45.444031,28.718742 C 45.485693,28.571787 45.530731,28.425575 45.589234,28.284298 C 45.643889,28.150382 45.700764,28.017332 45.764024,27.887212 C 45.816466,27.78404 45.869329,27.677718 45.949698,27.593055 C 45.998894,27.543859 46.051421,27.498582 46.108061,27.458078 C 46.152649,27.427747 46.198664,27.397803 46.251114,27.383071 C 46.891974,27.203065 46.93052,28.579162 46.281612,28.727563 z"
         id="path4497"
         style="opacity:1;fill:#000080;fill-opacity:1;fill-rule:nonzero;stroke:none;stroke-width:1.50000000000000000;stroke-linecap:round;stroke-linejoin:round;stroke-miterlimit:4;stroke-dasharray:none;stroke-dashoffset:0;stroke-opacity:1" />
      <path
         d="M 46.281612,28.727563 C 46.247009,28.735477 46.218176,28.754952 46.190531,28.77646 C 46.139656,28.810576 46.095707,28.853846 46.053015,28.897477 C 45.991605,28.972084 45.946248,29.057937 45.903499,29.144107 C 45.840391,29.267899 45.788442,29.396939 45.737713,29.526167 C 45.687471,29.66514 45.642344,29.805903 45.605822,29.949098 C 45.566353,30.106366 45.531686,30.264698 45.506402,30.424865 C 45.47428,30.251014 45.498592,30.853848 45.499429,30.672168 C 45.508362,28.732685 45.462646,29.303854 45.521433,29.734369 C 45.550704,29.91918 45.594114,30.101304 45.640176,30.282525 C 45.700017,30.506033 45.79531,30.717615 45.888519,30.928677 C 45.987551,31.148912 46.084261,31.370012 46.172114,31.594959 C 46.283467,31.910187 46.381213,32.230022 46.485531,32.547632 C 46.610963,32.914649 46.739122,33.28022 46.833436,33.656658 C 46.974172,34.417069 46.946704,35.202851 46.906646,35.97153 C 46.87936,36.464746 46.78068,36.948107 46.642448,37.421053 C 46.484788,37.94583 46.215527,38.421555 45.932881,38.886891 C 45.882698,38.966564 45.832515,39.046237 45.782333,39.12591 C 45.539458,39.511512 45.446626,38.59542 45.689635,38.209903 L 45.689635,38.209903 C 45.739241,38.131207 45.788847,38.052511 45.838453,37.973814 C 46.119661,37.499017 46.373201,37.006554 46.518198,36.470948 C 46.645588,35.985784 46.739003,35.491964 46.755258,34.989151 C 46.769592,34.539157 46.767136,34.53051 46.76478,35.517749 C 46.764609,35.589506 46.764207,35.374208 46.761532,35.3025 C 46.754048,35.101846 46.732177,34.902074 46.692759,34.7051 C 46.606013,34.331785 46.484144,33.968975 46.353722,33.608766 C 46.248638,33.324386 46.142279,33.040449 46.032015,32.758035 C 45.945365,32.53574 45.852358,32.316025 45.752905,32.099134 C 45.662008,31.894891 45.566253,31.692508 45.484585,31.484362 C 45.42592,31.307001 45.38658,31.124417 45.350033,30.941349 C 45.243447,30.369867 45.257199,29.776108 45.334374,29.20139 C 45.365709,29.039395 45.401667,28.87823 45.444031,28.718742 C 45.485693,28.571787 45.530731,28.425575 45.589234,28.284298 C 45.643889,28.150382 45.700764,28.017332 45.764024,27.887212 C 45.816466,27.78404 45.869329,27.677718 45.949698,27.593055 C 45.998894,27.543859 46.051421,27.498582 46.108061,27.458078 C 46.152649,27.427747 46.198664,27.397803 46.251114,27.383071 C 46.891974,27.203065 46.93052,28.579162 46.281612,28.727563 z"
         id="path4509"
         style="opacity:1;fill:url(#radialGradient4511);fill-opacity:1;fill-rule:nonzero;stroke:none;stroke-width:1.5;stroke-linecap:round;stroke-linejoin:round;stroke-miterlimit:4;stroke-dasharray:none;stroke-dashoffset:0;stroke-opacity:1" />
      <path
         style="opacity:1;fill:url(#radialGradient4606);fill-opacity:1;fill-rule:nonzero;stroke:none;stroke-width:1.5;stroke-linecap:round;stroke-linejoin:round;stroke-miterlimit:4;stroke-dasharray:none;stroke-dashoffset:0;stroke-opacity:1"
         id="path4499"
         d="M 46.281612,28.727563 C 46.247009,28.735477 46.218176,28.754952 46.190531,28.77646 C 46.139656,28.810576 46.095707,28.853846 46.053015,28.897477 C 45.991605,28.972084 45.946248,29.057937 45.903499,29.144107 C 45.840391,29.267899 45.788442,29.396939 45.737713,29.526167 C 45.687471,29.66514 45.642344,29.805903 45.605822,29.949098 C 45.566353,30.106366 45.531686,30.264698 45.506402,30.424865 C 45.47428,30.251014 45.498592,30.853848 45.499429,30.672168 C 45.508362,28.732685 45.462646,29.303854 45.521433,29.734369 C 45.550704,29.91918 45.594114,30.101304 45.640176,30.282525 C 45.700017,30.506033 45.79531,30.717615 45.888519,30.928677 C 45.987551,31.148912 46.084261,31.370012 46.172114,31.594959 C 46.283467,31.910187 46.381213,32.230022 46.485531,32.547632 C 46.610963,32.914649 46.739122,33.28022 46.833436,33.656658 C 46.974172,34.417069 46.946704,35.202851 46.906646,35.97153 C 46.87936,36.464746 46.78068,36.948107 46.642448,37.421053 C 46.484788,37.94583 46.215527,38.421555 45.932881,38.886891 C 45.882698,38.966564 45.832515,39.046237 45.782333,39.12591 C 45.539458,39.511512 45.446626,38.59542 45.689635,38.209903 L 45.689635,38.209903 C 45.739241,38.131207 45.788847,38.052511 45.838453,37.973814 C 46.119661,37.499017 46.373201,37.006554 46.518198,36.470948 C 46.645588,35.985784 46.739003,35.491964 46.755258,34.989151 C 46.769592,34.539157 46.767136,34.53051 46.76478,35.517749 C 46.764609,35.589506 46.764207,35.374208 46.761532,35.3025 C 46.754048,35.101846 46.732177,34.902074 46.692759,34.7051 C 46.606013,34.331785 46.484144,33.968975 46.353722,33.608766 C 46.248638,33.324386 46.142279,33.040449 46.032015,32.758035 C 45.945365,32.53574 45.852358,32.316025 45.752905,32.099134 C 45.662008,31.894891 45.566253,31.692508 45.484585,31.484362 C 45.42592,31.307001 45.38658,31.124417 45.350033,30.941349 C 45.243447,30.369867 45.257199,29.776108 45.334374,29.20139 C 45.365709,29.039395 45.401667,28.87823 45.444031,28.718742 C 45.485693,28.571787 45.530731,28.425575 45.589234,28.284298 C 45.643889,28.150382 45.700764,28.017332 45.764024,27.887212 C 45.816466,27.78404 45.869329,27.677718 45.949698,27.593055 C 45.998894,27.543859 46.051421,27.498582 46.108061,27.458078 C 46.152649,27.427747 46.198664,27.397803 46.251114,27.383071 C 46.891974,27.203065 46.93052,28.579162 46.281612,28.727563 z" />
      <path
         d="M 46.951138,27.481465 C 46.9777,27.532149 47.009605,27.580708 47.040352,27.629242 C 47.082121,27.698159 47.124245,27.766883 47.164655,27.836611 C 47.217133,27.925975 47.264895,28.017979 47.310171,28.111165 C 47.359094,28.212708 47.401171,28.317293 47.441155,28.422609 C 47.484385,28.538024 47.521392,28.65566 47.553297,28.774671 C 47.586906,28.904323 47.600443,29.037508 47.607144,29.170889 C 47.615136,29.716298 47.654317,30.268671 47.583436,30.811658 C 47.568473,30.955126 47.514148,31.087521 47.456567,31.218165 C 47.391213,31.368755 47.313898,31.513534 47.237786,31.658818 C 47.162987,31.803738 47.080086,31.943814 46.993394,32.081839 C 46.898111,32.226706 46.799981,32.369695 46.70036,32.511606 C 46.603327,32.652635 46.507084,32.794204 46.409985,32.935191 C 46.307206,33.083742 46.210658,33.236468 46.113779,33.388893 C 46.012926,33.548606 45.916686,33.711319 45.840461,33.8843 C 45.742694,34.107019 45.702388,34.348161 45.665886,34.586953 C 45.592578,35.015099 45.611871,36.336121 45.615581,34.484306 C 45.61809,34.889164 45.683351,35.289364 45.757454,35.6862 C 45.770716,35.751406 45.783977,35.816613 45.797239,35.88182 C 45.900433,36.389225 45.757391,37.425549 45.65434,36.918114 L 45.65434,36.918114 C 45.640817,36.851524 45.627294,36.784935 45.61377,36.718346 C 45.539302,36.332326 45.466303,35.944264 45.44786,35.550715 C 45.446684,34.857143 45.410891,34.153399 45.505326,33.462748 C 45.545812,33.199554 45.593542,32.934782 45.702897,32.690006 C 45.785166,32.511548 45.884328,32.34223 45.991317,32.177444 C 46.08937,32.021241 46.18771,31.865176 46.290586,31.712085 C 46.386307,31.569842 46.483663,31.428732 46.582487,31.288622 C 46.681384,31.146456 46.779456,31.003532 46.867073,30.854024 C 46.948994,30.714408 47.028077,30.573152 47.103344,30.429824 C 47.178584,30.285246 47.25153,30.139112 47.308334,29.9861 C 47.355748,29.848643 47.38961,29.707911 47.399256,29.562292 C 47.404705,29.497507 47.409469,29.432725 47.411602,29.367726 C 47.412308,29.346206 47.412797,29.281613 47.412836,29.303144 C 47.414826,30.405553 47.408806,30.881397 47.414416,30.416144 C 47.411816,30.286914 47.409641,30.157167 47.384375,30.029862 C 47.360491,29.913804 47.326396,29.800533 47.286246,29.689044 C 47.24942,29.586314 47.210757,29.484181 47.165702,29.384725 C 47.125254,29.296473 47.082341,29.209507 47.031674,29.126588 C 46.99139,29.062759 46.951024,28.999038 46.908789,28.936475 C 46.882268,28.895199 46.855767,28.85102 46.81935,28.818094 C 46.326223,28.372233 46.642539,26.892625 46.951138,27.481465 z"
         id="path4513"
         style="opacity:1;fill:#000080;fill-opacity:1;fill-rule:nonzero;stroke:none;stroke-width:1.50000000000000000;stroke-linecap:round;stroke-linejoin:round;stroke-miterlimit:4;stroke-dasharray:none;stroke-dashoffset:0;stroke-opacity:1" />
      <g
         id="g4162"
         style="display:inline"
         transform="translate(-193.28993,-327.74649)">
        <path
           transform="matrix(0.8660254,0.5,-0.5,0.8660254,209.77684,-72.439845)"
           d="M 242.53763,355.57013 A 1.5975375,0.79876876 0 1 1 239.34256,355.57013 A 1.5975375,0.79876876 0 1 1 242.53763,355.57013 z"
           sodipodi:ry="0.79876876"
           sodipodi:rx="1.5975375"
           sodipodi:cy="355.57013"
           sodipodi:cx="240.94009"
           id="path4152"
           style="opacity:1;fill:url(#radialGradient4244);fill-opacity:1;fill-rule:nonzero;stroke:none;stroke-width:0.40000001;stroke-linecap:round;stroke-linejoin:round;stroke-miterlimit:4;stroke-dasharray:none;stroke-opacity:1"
           sodipodi:type="arc" />
        <path
           d="M 240.73057,355.53085 A 0.78567421,0.78567421 0 1 1 239.15923,355.53085 A 0.78567421,0.78567421 0 1 1 240.73057,355.53085 z"
           sodipodi:ry="0.78567421"
           sodipodi:rx="0.78567421"
           sodipodi:cy="355.53085"
           sodipodi:cx="239.9449"
           id="path4142"
           style="opacity:1;fill:url(#radialGradient4246);fill-opacity:1;fill-rule:nonzero;stroke:none;stroke-width:0.40000001;stroke-linecap:round;stroke-linejoin:round;stroke-miterlimit:4;stroke-dasharray:none;stroke-opacity:1"
           sodipodi:type="arc" />
      </g>
      <path
         style="opacity:1;fill:url(#radialGradient4523);fill-opacity:1;fill-rule:nonzero;stroke:none;stroke-width:1.5;stroke-linecap:round;stroke-linejoin:round;stroke-miterlimit:4;stroke-dasharray:none;stroke-dashoffset:0;stroke-opacity:1"
         id="path4515"
         d="M 46.951138,27.481465 C 46.9777,27.532149 47.009605,27.580708 47.040352,27.629242 C 47.082121,27.698159 47.124245,27.766883 47.164655,27.836611 C 47.217133,27.925975 47.264895,28.017979 47.310171,28.111165 C 47.359094,28.212708 47.401171,28.317293 47.441155,28.422609 C 47.484385,28.538024 47.521392,28.65566 47.553297,28.774671 C 47.586906,28.904323 47.600443,29.037508 47.607144,29.170889 C 47.615136,29.716298 47.654317,30.268671 47.583436,30.811658 C 47.568473,30.955126 47.514148,31.087521 47.456567,31.218165 C 47.391213,31.368755 47.313898,31.513534 47.237786,31.658818 C 47.162987,31.803738 47.080086,31.943814 46.993394,32.081839 C 46.898111,32.226706 46.799981,32.369695 46.70036,32.511606 C 46.603327,32.652635 46.507084,32.794204 46.409985,32.935191 C 46.307206,33.083742 46.210658,33.236468 46.113779,33.388893 C 46.012926,33.548606 45.916686,33.711319 45.840461,33.8843 C 45.742694,34.107019 45.702388,34.348161 45.665886,34.586953 C 45.592578,35.015099 45.611871,36.336121 45.615581,34.484306 C 45.61809,34.889164 45.683351,35.289364 45.757454,35.6862 C 45.770716,35.751406 45.783977,35.816613 45.797239,35.88182 C 45.900433,36.389225 45.757391,37.425549 45.65434,36.918114 L 45.65434,36.918114 C 45.640817,36.851524 45.627294,36.784935 45.61377,36.718346 C 45.539302,36.332326 45.466303,35.944264 45.44786,35.550715 C 45.446684,34.857143 45.410891,34.153399 45.505326,33.462748 C 45.545812,33.199554 45.593542,32.934782 45.702897,32.690006 C 45.785166,32.511548 45.884328,32.34223 45.991317,32.177444 C 46.08937,32.021241 46.18771,31.865176 46.290586,31.712085 C 46.386307,31.569842 46.483663,31.428732 46.582487,31.288622 C 46.681384,31.146456 46.779456,31.003532 46.867073,30.854024 C 46.948994,30.714408 47.028077,30.573152 47.103344,30.429824 C 47.178584,30.285246 47.25153,30.139112 47.308334,29.9861 C 47.355748,29.848643 47.38961,29.707911 47.399256,29.562292 C 47.404705,29.497507 47.409469,29.432725 47.411602,29.367726 C 47.412308,29.346206 47.412797,29.281613 47.412836,29.303144 C 47.414826,30.405553 47.408806,30.881397 47.414416,30.416144 C 47.411816,30.286914 47.409641,30.157167 47.384375,30.029862 C 47.360491,29.913804 47.326396,29.800533 47.286246,29.689044 C 47.24942,29.586314 47.210757,29.484181 47.165702,29.384725 C 47.125254,29.296473 47.082341,29.209507 47.031674,29.126588 C 46.99139,29.062759 46.951024,28.999038 46.908789,28.936475 C 46.882268,28.895199 46.855767,28.85102 46.81935,28.818094 C 46.326223,28.372233 46.642539,26.892625 46.951138,27.481465 z" />
    </g>
  </g>
</svg>
