/* XPM */
static char * mini_xpm[] = {
"64 64 27 1",
" 	c None",
".	c #FFFFFF",
"+	c #EAEAEA",
"@	c #999999",
"#	c #ADADAD",
"$	c #B7B7B7",
"%	c #C1C1C1",
"&	c #E0E0E0",
"*	c #CCCCCC",
"=	c #7A7A7A",
"-	c #A3A3A3",
";	c #333333",
">	c #8E8E8E",
",	c #5B5B5B",
"'	c #D6D6D6",
")	c #0A0A0A",
"!	c #282828",
"~	c #666666",
"{	c #474747",
"]	c #1E1E1E",
"^	c #141414",
"/	c #000000",
"(	c #707070",
"_	c #F4F4F4",
":	c #848484",
"<	c #3D3D3D",
"[	c #515151",
"........................................................+.......",
".............................@#$@%%&............................",
"..........................*=#-&#;-&>............................",
"..........................,$'#,)!%#~*...........................",
"..........................{]^//(%==*=(&.........................",
"........................_(~{,>@=(%$*#$,=%.......................",
"........................+~::>~=*$*#*$*$':@......................",
".........................%~*>=@*#*$*#*%'$#~_....................",
"........................&{#>>=-*$*#*$*>>='-@....................",
"........................#:>&.&>*#*$*#$@.&>%@....................",
"........................=@=.*.=*$*#*$=...@$:....................",
"........................=@@<;{@*(,,>#@@]{$#(_...................",
".....................'>*{*~/))~#[=:~-@)^!(#*~#..................",
"....................&@=([*()/)(@~:=:@>^//,$>>:-.................",
"...........&$:((....*,#==*:($-:@~=:=@@~@(:%>:,:&................",
"...........(<&{@....$@{,**@:>*$@~:=:@*$*$**@[>:*................",
"...........=:+[@....*@{@**-@$*#@~=:=@*#***%$[,=_................",
"..........([#-(-'&&..=<;*#$*-*$@~:=:@*%&#'*:<,>.................",
"..........:;#+*&>@(..@%@>@#*$*#>(=:>=*#-$'$-:=*.................",
"..........=_+*='_>(.._:[[%$*#*$=(:=@~*=(@'%@(:..................",
"..........$=%'+_,*.....^[*#*$>[<==:@{(>#$*%*:...................",
"...........@~@@{%......]{#$*#(===:=-(:('$*%'=...................",
"...........&=..-&......^[*#*$[~!{=:{!~['%*$':...................",
"............#)]$.......]{$$*@~=#==(->@-*%>>*~...................",
"............%;;%.....%:][@#*@~@*$*#*$*#'%@='[*..................",
"............*</-....${/;{$$-(%#*#*$*#*$$,'$@<<<(@-+.............",
".............,/(...+[/!;[:#$!~:=(=~====~{*%,<////^<(%...........",
".............>/{'..-^^>!{@$*](*'&.%&.%@[('@<<#>~,^//{$..........",
".............$!)@.*,/,+![~#*>,:(=>==>:,~#*->=&..+%></(..........",
"............._~/!,[/;-.~{~$*#%~:-%%#>==*%*#@((&...+,/~..........",
"..............*~///;@..$<,#*$*#-[~{~,%$*$*#:'_:$%'=^)-..........",
"...............'@~(#...#;<>*#*$*-->-#*$*$*~@-..~@<))=&..........",
".......................&;;:#$*#*$*#*$*@:$#]_&+.:$/!=&...........",
"........................!;(;@*$*#*$*#*@~-,<.++.:#>%_............",
"........................:<~[:*#*$*#*$*-%@[;$_&%=#...............",
".........................<[!:#$*#*$*#*$*@{;[+@-.................",
".........................';;[;~@#*#*$*#*@{{_@+..................",
"..........................%!{;(;{$$*#*$*#:-.....................",
"...........................$<;[{[{>$$#@~{#......................",
"............................@<{;{;[<(<<:........................",
".............................#^^{!!];!#.........................",
".............................:/['.*;]%..........................",
".............................</=..&</%..........................",
"............................+</%...</(..........................",
"............................*;^%...>/~..........................",
"............................*;;*...@/~..........................",
"............................*;;*...@/~..........................",
"............................*;;*...@/~..........................",
"............................*;;%...@/~..........................",
"............................*</*...@/~..........................",
"........................&+&+&;/:&_&>/~&++___....................",
".................._&*'#*$*#*$(/;:>#:/~#*$*#*$*'+................",
"................+&$*#*$*#*$*#-;%.[#[/($*#*$*#*$*$_..............",
"..............._:%-*$*#*$*#*$#>_>'{;/:#*$*#*$*#*$*+.............",
"..............&@=$>%#*$*#*$*#%[:+_==<*:*#*$*#*$*#*$_............",
"..............-@~@>%-*#*$*#*$:@..@,@@@~*$*#*$*#*$*#&............",
"..............@@~@=#:%-*@=(=~-&..<'->%>=#*$*#*$*#*$*_...........",
"..............%@~@~@=#:(='%&$#+.#(%'*_.&~*#*$*#*$*#*+...........",
"...............#~@~@=->='_._..._{:$+_...&:$*#*$*#*$*............",
"................:@~@~-((@$***#@</:_......:#*$*#*$*#+............",
"................%@~@~@~@=:~=:@(@=:(*_..':-$*#*$*#*'.............",
".................*:@~@~@~@:#@#:%$*-@~=~@-*#*$*#*$&_.............",
"...................&>@~@~@~-~->-@%@%-*#%#*$*$&+_................",
"......................''%'@-~-=#:%:%@#@%*&&+...................."};
